<svg clip-rule="evenodd" fill-rule="evenodd" height="512" image-rendering="optimizeQuality" shape-rendering="geometricPrecision" text-rendering="geometricPrecision" viewBox="0 0 1707 1707" width="512" xmlns="http://www.w3.org/2000/svg"><g id="Layer_x0020_1"><g><path d="m972 1510c-80 0-121-99-64-156s155-16 155 65c0 49-41 91-91 91zm73-296c-93 0-176 63-199 154-32 124 60 255 198 255 95 0 179-67 199-160 6-28 45-21 66-21 15 0 25 15 35 25 10-14 20-35 39-35 18 0 28 20 38 33 9-13 18-32 36-32 17 0 25 16 34 28 8-12 16-27 32-27 20 0 36 31 47 46h22l52-52-48-48c-109 0-224 2-332 0-11 0-21-8-24-19-25-86-107-146-195-147zm-233 95h-461c-14 0-25-11-25-26v-196c0-123 122-222 272-222h4l51-42c-70-47-116-126-116-217 0-144 118-261 262-261s261 117 261 261c0 91-46 170-116 217l51 42c149 1 270 100 270 222l-1 202c8 12 14 26 19 39h61c126-137 195-315 195-501 0-410-334-743-744-743s-743 333-743 743c0 425 360 766 785 742-32-43-48-96-49-150 0-24 8-82 20-100zm-160-419 143 115 147-117-48-38c-60 23-131 23-190 0zm-275 368h98v-97c0-34 52-34 52 0v97h318c26-32 36-35 61-55 34-27 103-37 105-38 6-3 25-2 33-2h16c0-37 52-37 52-2v11c37 10 72 29 101 55v-140c0-94-99-171-220-171h-4l-178 142c-9 7-22 7-32 0l-177-142h-4c-122 0-221 77-221 171zm422-861c-116 0-210 94-210 209 0 116 94 210 210 210 115 0 209-94 209-210 0-115-94-209-209-209zm-4 1225c-438 0-795-356-795-795 0-438 357-795 795-795 439 0 796 357 796 795 0 184-63 360-178 501h194c7 0 13 3 18 8l74 74c10 10 10 26 0 36l-78 78c-12 13-47 8-64 8s-25-16-33-28c-9 12-17 27-33 27-17 0-25-16-34-28-9 12-18 30-36 30s-28-20-38-33c-9 13-30 49-55 24l-30-30h-9c-54 175-268 236-406 124-29 3-59 4-88 4zm27-76c-1-1-2-3-3-5zm150-167c-34 0-52 43-28 68 37 36 92-20 56-56-7-7-17-12-28-12z" fill="#333"/></g><path d="m906 1203c34-27 103-37 105-38 6-3 25-2 33-2h16c0-37 52-37 52-2v11c37 10 72 29 101 55v-140c0-94-99-171-220-171h-4l-178 142c-9 7-22 7-32 0l-177-142h-4c-122 0-221 77-221 171v171h98v-97c0-34 52-34 52 0v97h318c26-32 36-35 61-55z" fill="#1aa1ff"/><path d="m795 1005 147-117-48-38c-60 23-131 23-190 0l-52 40z" fill="#ff9e5c"/><path d="m799 816c115 0 209-94 209-210 0-115-94-209-209-209-116 0-210 94-210 209 0 116 94 210 210 210z" fill="#ff9e5c"/><path d="m1060 606c0 91-46 170-116 217l51 42c149 1 270 100 270 222l-1 202c8 12 14 26 19 39h61c126-137 195-315 195-501 0-410-334-743-744-743s-743 333-743 743c0 425 360 766 785 742-6-7-11-15-15-23-22-38-34-82-34-127 0-24 8-82 20-100l4-10h-461c-14 0-25-11-25-26v-196c0-123 122-222 272-222h4l51-42c-70-47-116-126-116-217 0-144 118-261 262-261s261 117 261 261z" fill="#27d389"/><path d="m1240 1361c-25-86-107-146-195-147-93 0-176 63-199 154-32 124 60 255 198 255 95 0 179-67 199-160 6-28 45-21 66-21 15 0 25 15 35 25 10-14 20-35 39-35 18 0 28 20 38 33 9-13 18-32 36-32 17 0 25 16 34 28 8-12 16-27 32-27 20 0 36 31 47 46h22l52-52-48-48c-109 0-224 2-332 0-11 0-21-8-24-19zm-177 58c0 49-41 91-91 91-80 0-121-99-64-156s155-16 155 65z" fill="#ffa721"/><path d="m944 1447c37 36 92-20 56-56-7-7-17-12-28-12-34 0-52 43-28 68z" fill="#27d389"/></g></svg>