<svg height="512" viewBox="0 0 64 64" width="512" xmlns="http://www.w3.org/2000/svg"><g id="_24_Letter_Contract_Documentation" data-name="24 Letter, Contract, Documentation"><path d="m44 9v44a1 1 0 0 1 -1 1h-29a5 5 0 0 1 -5-5v-40a5 5 0 0 1 5-5h25a5 5 0 0 1 5 5z" fill="#ffca28"/><path d="m44 8.82a5 5 0 0 0 -5-4.82h-25a5 5 0 0 0 -5 5v40a5 5 0 0 0 5 5h29a1 1 0 0 0 1-1v-44a1.09 1.09 0 0 0 0-.18z" fill="#ffca28"/><path d="m52.93 19.36a1 1 0 0 1 -.93.64h-9a1 1 0 0 1 -1-1v-8a1 1 0 0 1 1.66-.75l9 8a1 1 0 0 1 .27 1.11z" fill="#ef5350"/><path d="m53 19v37a4 4 0 0 1 -4 4h-29a5 5 0 0 1 -5-5v-40a5 5 0 0 1 5-5h23a1 1 0 0 1 1 1v7h8a1 1 0 0 1 1 1z" fill="#26a6fe"/><path d="m52 18h-1v7a33 33 0 0 1 -33 33 4.93 4.93 0 0 1 -2.39-.61 5 5 0 0 0 4.39 2.61h29a4 4 0 0 0 4-4v-37a1 1 0 0 0 -1-1z" fill="#1976d2"/><path d="m33 29v8a3 3 0 0 1 -3 3h-8a3 3 0 0 1 -3-3v-8a3 3 0 0 1 3-3h8a3 3 0 0 1 3 3z" fill="#ef5350"/><path d="m30.87 26.13a3.16 3.16 0 0 1 .13.87 11 11 0 0 1 -11 11 3.16 3.16 0 0 1 -.87-.13 3 3 0 0 0 2.87 2.13h8a3 3 0 0 0 3-3v-8a3 3 0 0 0 -2.13-2.87z" fill="#d43030"/><path d="m30 37a1 1 0 0 1 -1 1h-6a1 1 0 0 1 -1-1 4 4 0 0 1 1.62-3.2 3 3 0 0 1 -.62-1.8 3 3 0 0 1 6 0 3 3 0 0 1 -.62 1.8 4 4 0 0 1 1.62 3.2z" fill="#fff"/><path d="m35 43v4a1 1 0 0 1 -1 1h-14a1 1 0 0 1 -1-1v-4a1 1 0 0 1 1-1h14a1 1 0 0 1 1 1z" fill="#75cc77"/><path d="m34 42h-1a4 4 0 0 1 -4 4h-10v1a1 1 0 0 0 1 1h14a1 1 0 0 0 1-1v-4a1 1 0 0 0 -1-1z" fill="#53a454"/><path d="m47.25 40.34-1.41 1.41-11.55 11.54a1 1 0 0 0 -.29.71v5a1 1 0 0 0 1 1h5a1 1 0 0 0 .71-.29l11.55-11.54 1.41-1.41z" fill="#ffca28"/><path d="m52.67 45.76-1.41 1.41-11.55 11.54a1 1 0 0 1 -.71.29h-5a1 1 0 0 0 1 1h5a1 1 0 0 0 .71-.29l11.55-11.54 1.41-1.41z" fill="#ffa000"/><path d="m55.21 45.21-1.54 1.55-6.42-6.42 1.54-1.55a4.54 4.54 0 0 1 6.42 6.42z" fill="#ef5350"/><path d="m55.21 45.21-1.54 1.55-1-1 .54-.55a4.54 4.54 0 0 0 -2.21-7.64 4.54 4.54 0 0 1 4.21 7.64z" fill="#d43030"/><g fill="#fff"><path d="m40 16h-21v-2h21zm0 2h-21v2h21zm9 4h-30v2h30zm0 4h-14v2h14zm0 4h-14v2h14zm0 4h-14v2h14zm-3 4h-11v2h11zm-14 12h-13v2h13zm0 4h-13v2h13z"/><path d="m48.76 39.72h1.99v9.08h-1.99z" transform="matrix(.707 -.707 .707 .707 -16.72 48.14)"/></g></g></svg>