<svg width="662" height="683" viewBox="0 0 662 683" fill="none" xmlns="http://www.w3.org/2000/svg">
<g clip-path="url(#clip0_168_207)">
<path fill-rule="evenodd" clip-rule="evenodd" d="M91.0228 273.068V500.625H56.8893C31.754 500.625 11.3779 480.248 11.3779 455.113V318.579C11.3779 293.444 31.754 273.068 56.8893 273.068H91.0228Z" fill="#FFDC00"/>
<path fill-rule="evenodd" clip-rule="evenodd" d="M136.534 295.824V477.869C136.496 490.421 126.33 500.587 113.778 500.625H91.0225V273.068H113.778C126.33 273.105 136.496 283.271 136.534 295.824Z" fill="#607D8B"/>
<path fill-rule="evenodd" clip-rule="evenodd" d="M591.647 273.068V500.625H568.891C556.339 500.587 546.173 490.421 546.136 477.869V295.824C546.173 283.271 556.339 273.105 568.891 273.068H591.647Z" fill="#607D8B"/>
<path fill-rule="evenodd" clip-rule="evenodd" d="M671.292 318.579V455.113C671.292 480.248 650.916 500.625 625.781 500.625H591.647V273.068H625.781C650.916 273.068 671.292 293.444 671.292 318.579Z" fill="#FFDC00"/>
<path fill-rule="evenodd" clip-rule="evenodd" d="M625.781 273.068H591.647C616.783 273.068 637.159 293.444 637.159 318.579V455.113C637.159 480.248 616.783 500.625 591.647 500.625H625.781C650.916 500.625 671.292 480.248 671.292 455.113V318.579C671.292 293.444 650.916 273.068 625.781 273.068Z" fill="#FEC108"/>
<path fill-rule="evenodd" clip-rule="evenodd" d="M102.4 273.068C102.4 153.863 209.591 56.8893 341.335 56.8893C473.078 56.8893 580.269 153.863 580.269 273.068H625.78C625.78 128.57 498.428 11.3779 341.335 11.3779C184.241 11.3779 56.8887 128.57 56.8887 273.068H102.4Z" fill="#FF9801"/>
<path fill-rule="evenodd" clip-rule="evenodd" d="M489.246 603.025V659.914C489.246 666.198 484.152 671.292 477.869 671.292H216.178C197.327 671.292 182.045 656.01 182.045 637.159C182.045 618.307 197.327 603.025 216.178 603.025H489.246Z" fill="#F5F5F5"/>
<path fill-rule="evenodd" clip-rule="evenodd" d="M455.113 603.025V659.914C455.113 666.198 450.019 671.292 443.735 671.292H477.869C484.153 671.292 489.247 666.198 489.247 659.914V603.025H455.113Z" fill="#CFD8DC"/>
<path fill-rule="evenodd" clip-rule="evenodd" d="M500.624 227.557V591.647C500.624 597.931 495.53 603.025 489.246 603.025H216.178C197.327 603.025 182.045 618.307 182.045 637.159V250.312C182.045 231.461 197.327 216.179 216.178 216.179H489.246C495.53 216.179 500.624 221.273 500.624 227.557Z" fill="#F44335"/>
<path fill-rule="evenodd" clip-rule="evenodd" d="M489.247 216.179H455.113C461.397 216.179 466.491 221.273 466.491 227.557V591.647C466.491 597.931 461.397 603.025 455.113 603.025H489.247C495.531 603.025 500.625 597.931 500.625 591.647V227.557C500.625 221.273 495.531 216.179 489.247 216.179Z" fill="#C81E1E"/>
<path fill-rule="evenodd" clip-rule="evenodd" d="M250.312 386.846H284.446V455.113H250.312C237.745 455.113 227.557 444.925 227.557 432.358V409.602C227.557 397.034 237.745 386.846 250.312 386.846Z" fill="#FF9801"/>
<path fill-rule="evenodd" clip-rule="evenodd" d="M284.446 386.846L336.488 343.611C339.44 341.158 343.544 340.632 347.019 342.263C350.493 343.893 352.713 347.384 352.713 351.222V490.737C352.699 494.569 350.475 498.049 347.003 499.67C343.532 501.292 339.436 500.764 336.488 498.315L284.446 455.113V386.846Z" fill="#FFDC00"/>
<path d="M636.874 262.828C631.003 116.987 500.727 0 341.335 0C181.943 0 51.6667 116.987 45.7958 262.828C19.2059 268.142 0.0484239 291.464 0 318.579V455.113C0.0376165 486.517 25.4857 511.965 56.8892 512.003H113.778C132.63 512.003 147.912 496.72 147.912 477.869V295.824C147.878 277.245 132.991 262.105 114.415 261.758C121.003 154.101 220.104 68.267 341.335 68.267C462.566 68.267 561.667 154.101 568.255 261.758C549.679 262.105 534.792 277.245 534.758 295.824V477.869C534.758 496.72 550.04 512.003 568.892 512.003H625.781C657.184 511.965 682.632 486.517 682.67 455.113V318.579C682.622 291.464 663.464 268.142 636.874 262.828ZM22.7557 455.113V318.579C22.7557 299.728 38.0378 284.446 56.8892 284.446H79.6448V489.247H56.8892C38.0378 489.247 22.7557 473.965 22.7557 455.113ZM125.156 295.824V477.869C125.156 484.153 120.062 489.247 113.778 489.247H102.401V284.446H113.778C120.062 284.446 125.156 289.54 125.156 295.824ZM341.335 45.5113C207.509 45.5113 97.8494 141.483 91.3412 261.69H68.5856C75.0937 128.934 194.925 22.7557 341.335 22.7557C487.745 22.7557 607.576 128.934 614.084 261.69H591.329C584.821 141.483 475.161 45.5113 341.335 45.5113ZM557.514 477.869V295.824C557.514 289.54 562.608 284.446 568.892 284.446H580.27V489.247H568.892C562.608 489.247 557.514 484.153 557.514 477.869ZM659.914 455.113C659.914 473.965 644.632 489.247 625.781 489.247H603.025V284.446H625.781C644.632 284.446 659.914 299.728 659.914 318.579V455.113Z" fill="black"/>
<path d="M477.869 682.67C490.437 682.67 500.625 672.482 500.625 659.914V611.342C507.662 607.28 511.999 599.773 512.003 591.647V227.557C512.003 214.989 501.815 204.801 489.247 204.801H216.179C191.044 204.801 170.668 225.177 170.668 250.312V637.159C170.668 662.294 191.044 682.67 216.179 682.67H477.869ZM193.424 250.312C193.424 237.745 203.612 227.557 216.179 227.557H489.247V591.647H216.179C208.187 591.635 200.335 593.743 193.424 597.757V250.312ZM193.424 637.159C193.424 624.591 203.612 614.403 216.179 614.403H477.869V659.914H216.179C203.612 659.914 193.424 649.726 193.424 637.159Z" fill="black"/>
<path d="M250.312 466.491H280.338L329.263 507.053C333.047 510.232 337.826 511.984 342.768 512.002C345.915 512.001 349.023 511.306 351.871 509.966C359.359 506.503 364.135 498.987 364.091 490.737V351.222C364.081 342.979 359.309 335.484 351.845 331.988C344.38 328.492 335.567 329.625 329.229 334.895L280.338 375.468H250.312C231.461 375.468 216.179 390.75 216.179 409.602V432.358C216.179 451.209 231.461 466.491 250.312 466.491ZM341.335 354.408V487.529L295.824 449.766V392.194L341.335 354.408ZM238.934 409.602C238.934 403.318 244.028 398.224 250.312 398.224H273.068V443.735H250.312C244.028 443.735 238.934 438.641 238.934 432.358V409.602Z" fill="black"/>
<path fill-rule="evenodd" clip-rule="evenodd" d="M390.18 463.157C394.623 467.599 401.825 467.599 406.268 463.157C416.379 451.493 421.643 436.402 420.98 420.98C421.643 405.558 416.379 390.466 406.268 378.802C401.878 374.41 394.767 374.379 390.339 378.734C385.887 383.094 385.74 390.214 390.009 394.754C395.801 402.229 398.716 411.536 398.224 420.98C398.722 430.355 395.871 439.602 390.18 447.069C385.738 451.512 385.738 458.714 390.18 463.157Z" fill="black"/>
<path fill-rule="evenodd" clip-rule="evenodd" d="M443.736 420.98C444.881 442.759 437.967 464.197 424.314 481.203C421.356 484.059 420.17 488.29 421.211 492.268C422.252 496.246 425.359 499.352 429.337 500.394C433.315 501.435 437.545 500.249 440.402 497.291C458.382 476.038 467.697 448.792 466.491 420.98C467.697 393.168 458.382 365.922 440.402 344.669C435.931 340.517 428.981 340.63 424.648 344.926C420.316 349.222 420.143 356.171 424.257 360.677C437.944 377.699 444.879 399.168 443.736 420.98Z" fill="black"/>
</g>
<defs>
<clipPath id="clip0_168_207">
<rect width="682.67" height="682.67" fill="white"/>
</clipPath>
</defs>
</svg>
