<svg width="683" height="683" viewBox="0 0 683 683" fill="none" xmlns="http://www.w3.org/2000/svg">
<path d="M21.3335 21.3335H661.337V490.669H21.3335V21.3335Z" fill="#898989"/>
<path d="M256.001 597.336H426.669C443.643 597.336 459.921 604.079 471.924 616.081C483.926 628.084 490.669 644.363 490.669 661.336H192.001C192.001 644.363 198.744 628.084 210.746 616.081C222.749 604.079 239.027 597.336 256.001 597.336Z" fill="#4F4F4F"/>
<path d="M277.334 490.669H405.335V597.336H277.334V490.669Z" fill="#5B5B5B"/>
<path d="M21.3335 21.3335H661.337V426.669H21.3335V21.3335Z" fill="#A5BADB"/>
<path d="M42.667 42.667H642.809V405.335H42.667V42.667Z" fill="#D7E0EF"/>
<path d="M181.334 405.335L362.668 42.667H405.335L224.001 405.335H181.334Z" fill="#C1CFE8"/>
<path d="M362.668 405.335L544.003 42.667H586.67L405.335 405.335H362.668Z" fill="#C1CFE8"/>
<path d="M405.335 575.469V490.669H311.468C316.03 512.964 327.598 533.218 344.485 548.474C361.372 563.73 382.693 573.188 405.335 575.469Z" fill="#6B6B6B"/>
<path d="M202.454 138.667C202.454 115.103 183.352 96.0005 159.787 96.0005C136.223 96.0005 117.121 115.103 117.121 138.667V181.334C117.121 204.898 136.223 224.001 159.787 224.001C183.352 224.001 202.454 204.898 202.454 181.334V138.667Z" fill="#798499"/>
<path d="M234.455 191.243C231.877 209.277 222.86 225.769 209.069 237.672C195.278 249.574 177.645 256.083 159.428 255.996C141.211 255.909 123.641 249.232 109.965 237.198C96.2883 225.164 87.4293 208.587 85.0246 190.529L74.4539 192.001L64.0005 194.262C67.1364 215.454 77.1789 235.018 92.5697 249.919C107.961 264.82 127.839 274.224 149.121 276.673V309.335H170.454V276.673C191.744 274.224 211.63 264.814 227.024 249.905C242.417 234.995 252.458 215.42 255.585 194.22L255.692 193.473L234.455 191.243Z" fill="#707070"/>
<path d="M138.454 309.335H181.121C192.437 309.335 203.289 313.83 211.291 321.832C219.292 329.833 223.788 340.686 223.788 352.002H95.7871C95.7871 340.686 100.282 329.833 108.284 321.832C116.286 313.83 127.138 309.335 138.454 309.335Z" fill="#798499"/>
<path d="M117.121 138.667H202.454V181.334H117.121V138.667Z" fill="#9AA3AF"/>
<path d="M341.122 362.668C341.122 368.326 343.369 373.753 347.37 377.753C351.371 381.754 356.797 384.002 362.455 384.002H618.456V64.0002H362.455C356.797 64.0002 351.371 66.2479 347.37 70.2487C343.369 74.2495 341.122 79.6757 341.122 85.3337V362.668Z" fill="#F79B31"/>
<path d="M362.455 64.0002C356.797 64.0002 351.371 66.2479 347.37 70.2487C343.369 74.2495 341.122 79.6757 341.122 85.3337V362.668C341.122 368.326 343.369 373.753 347.37 377.753C351.371 381.754 356.797 384.002 362.455 384.002H383.788V64.0002H362.455Z" fill="#785349"/>
<path d="M533.123 64.0002V128.001L554.456 106.667L575.789 128.001V64.0002H533.123Z" fill="#E73844"/>
<path d="M447.789 234.668L462.04 244.172C473.615 251.885 487.213 256.001 501.123 256.001C515.035 256.001 528.637 251.885 540.216 244.172L554.456 234.668L575.79 266.668L558.723 279.468C542.106 291.931 521.894 298.668 501.123 298.668C480.351 298.668 460.14 291.931 443.522 279.468L426.456 266.668L447.789 234.668Z" fill="#FFE1AE"/>
<path d="M501.122 213.334C512.905 213.334 522.456 203.783 522.456 192.001C522.456 180.219 512.905 170.667 501.122 170.667C489.34 170.667 479.789 180.219 479.789 192.001C479.789 203.783 489.34 213.334 501.122 213.334Z" fill="#FFEACD"/>
<path d="M362.455 384.002H618.456V341.335H362.455C356.797 341.335 351.371 343.583 347.37 347.583C343.369 351.584 341.122 357.01 341.122 362.668C341.122 368.326 343.369 373.753 347.37 377.753C351.371 381.754 356.797 384.002 362.455 384.002Z" fill="#F9CB5D"/>
<path d="M661.336 10.6667H21.3332C18.5042 10.6667 15.7911 11.7906 13.7907 13.791C11.7903 15.7914 10.6665 18.5045 10.6665 21.3335V490.669C10.6665 493.498 11.7903 496.211 13.7907 498.212C15.7911 500.212 18.5042 501.336 21.3332 501.336H266.668V586.67H256.001C236.205 586.692 217.226 594.566 203.228 608.564C189.231 622.562 181.357 641.541 181.334 661.337C181.334 664.166 182.458 666.879 184.458 668.879C186.459 670.879 189.172 672.003 192.001 672.003H490.669C493.498 672.003 496.211 670.879 498.211 668.879C500.212 666.879 501.336 664.166 501.336 661.337C501.313 641.541 493.439 622.562 479.441 608.564C465.443 594.566 446.465 586.692 426.669 586.67H416.002V501.336H661.336C664.165 501.336 666.878 500.212 668.879 498.212C670.879 496.211 672.003 493.498 672.003 490.669V21.3335C672.003 18.5045 670.879 15.7914 668.879 13.791C666.878 11.7906 664.165 10.6667 661.336 10.6667ZM650.67 32.0002V416.002H31.9999V32.0002H650.67ZM478.935 650.67H203.734C206.208 638.631 212.758 627.813 222.279 620.04C231.8 612.268 243.71 608.017 256.001 608.003H426.669C438.959 608.017 450.869 612.268 460.391 620.04C469.912 627.813 476.462 638.631 478.935 650.67ZM394.668 586.67H288.001V501.336H394.668V586.67ZM31.9999 480.002V437.335H650.67V480.002H31.9999Z" fill="black"/>
<path d="M160.001 234.668C174.14 234.651 187.696 229.026 197.694 219.028C207.693 209.03 213.317 195.474 213.334 181.334V138.667C213.334 124.522 207.715 110.957 197.713 100.955C187.711 90.9528 174.146 85.3337 160.001 85.3337C145.856 85.3337 132.29 90.9528 122.288 100.955C112.286 110.957 106.667 124.522 106.667 138.667V181.334C106.684 195.474 112.308 209.03 122.307 219.028C132.305 229.026 145.861 234.651 160.001 234.668ZM192.001 149.334V170.667H128V149.334H192.001ZM160.001 213.334C153.406 213.307 146.98 211.243 141.604 207.424C136.227 203.605 132.161 198.219 129.963 192.001H190.038C187.84 198.219 183.774 203.605 178.397 207.424C173.021 211.243 166.595 213.307 160.001 213.334ZM160.001 106.667C166.595 106.695 173.021 108.759 178.397 112.577C183.774 116.396 187.84 121.783 190.038 128.001H129.963C132.161 121.783 136.227 116.396 141.604 112.577C146.98 108.759 153.406 106.695 160.001 106.667Z" fill="black"/>
<path d="M149.334 276.673V298.668H138.668C124.528 298.685 110.972 304.309 100.974 314.308C90.9754 324.306 85.3509 337.862 85.334 352.002C85.334 354.831 86.4578 357.544 88.4582 359.544C90.4586 361.545 93.1717 362.668 96.0007 362.668H224.001C226.83 362.668 229.543 361.545 231.544 359.544C233.544 357.544 234.668 354.831 234.668 352.002C234.651 337.862 229.027 324.306 219.028 314.308C209.03 304.309 195.474 298.685 181.334 298.668H170.668V276.673C191.956 274.222 211.839 264.811 227.231 249.902C242.622 234.993 252.661 215.419 255.788 194.22L255.895 193.473L234.668 191.243C232.082 209.272 223.061 225.756 209.27 237.653C195.479 249.549 177.849 256.055 159.636 255.967C141.424 255.88 123.857 249.207 110.18 237.179C96.5038 225.151 87.6406 208.581 85.2273 190.529L74.6673 192.001L64.2139 194.262C67.3498 215.454 77.3923 235.018 92.7831 249.919C108.174 264.82 128.052 274.224 149.334 276.673ZM211.511 341.335H108.491C110.706 335.1 114.794 329.703 120.197 325.884C125.599 322.064 132.051 320.01 138.668 320.001H181.334C187.951 320.01 194.403 322.064 199.805 325.884C205.208 329.703 209.296 335.1 211.511 341.335Z" fill="black"/>
<path d="M362.669 394.668H618.67C621.499 394.668 624.212 393.545 626.212 391.544C628.213 389.544 629.337 386.831 629.337 384.002V64.0002C629.337 61.1712 628.213 58.4581 626.212 56.4577C624.212 54.4573 621.499 53.3335 618.67 53.3335H362.669C354.182 53.3335 346.042 56.7049 340.041 62.7061C334.04 68.7073 330.668 76.8467 330.668 85.3337V362.668C330.668 371.155 334.04 379.295 340.041 385.296C346.042 391.297 354.182 394.668 362.669 394.668ZM608.003 330.668H394.669V74.6669H522.669V128.001C522.67 130.11 523.296 132.172 524.468 133.925C525.64 135.679 527.306 137.046 529.254 137.853C531.203 138.66 533.348 138.872 535.416 138.46C537.485 138.049 539.386 137.033 540.877 135.542L554.67 121.75L568.462 135.542C569.953 137.033 571.854 138.049 573.923 138.46C575.991 138.872 578.136 138.66 580.085 137.853C582.033 137.046 583.699 135.679 584.871 133.925C586.043 132.172 586.669 130.11 586.67 128.001V74.6669H608.003V330.668ZM544.003 74.6669H565.336V102.251L562.211 99.1257C560.211 97.126 557.498 96.0026 554.67 96.0026C551.841 96.0026 549.128 97.126 547.128 99.1257L544.003 102.251V74.6669ZM362.669 74.6669H373.335V330.668H362.669C359.027 330.704 355.418 331.368 352.002 332.631V85.3337C352.002 82.5047 353.126 79.7915 355.126 77.7911C357.126 75.7907 359.84 74.6669 362.669 74.6669ZM362.669 352.002H608.003V373.335H362.669C359.84 373.335 357.126 372.211 355.126 370.211C353.126 368.21 352.002 365.497 352.002 362.668C352.002 359.839 353.126 357.126 355.126 355.126C357.126 353.125 359.84 352.002 362.669 352.002Z" fill="black"/>
<path d="M563.544 228.748C562.767 227.582 561.768 226.581 560.603 225.802C559.439 225.023 558.133 224.48 556.759 224.206C555.385 223.931 553.97 223.93 552.596 224.203C551.222 224.475 549.915 225.016 548.749 225.793L534.499 235.297C524.63 241.719 513.11 245.138 501.336 245.138C489.562 245.138 478.041 241.719 468.173 235.297L453.922 225.793C452.757 225.016 451.45 224.475 450.075 224.203C448.701 223.93 447.287 223.931 445.913 224.206C444.539 224.48 443.233 225.023 442.068 225.802C440.904 226.581 439.905 227.582 439.128 228.748L417.794 260.748C416.281 263.017 415.694 265.779 416.154 268.467C416.614 271.156 418.087 273.565 420.269 275.201L437.336 288.001C455.799 301.849 478.256 309.335 501.336 309.335C524.415 309.335 546.872 301.849 565.336 288.001L582.403 275.201C584.583 273.564 586.054 271.153 586.512 268.465C586.97 265.777 586.381 263.016 584.867 260.748L563.544 228.748ZM552.536 270.935C537.765 282.013 519.8 288.001 501.336 288.001C482.872 288.001 464.907 282.013 450.136 270.935L441.133 264.193L450.957 249.463L456.29 253.047C469.678 261.77 485.314 266.415 501.293 266.415C517.273 266.415 532.908 261.77 546.296 253.047L551.629 249.463L561.453 264.193L552.536 270.935Z" fill="black"/>
<path d="M501.336 224.001C507.665 224.001 513.852 222.124 519.114 218.608C524.376 215.092 528.478 210.094 530.9 204.247C533.322 198.4 533.956 191.965 532.721 185.758C531.486 179.551 528.438 173.849 523.963 169.373C519.488 164.898 513.786 161.85 507.579 160.616C501.371 159.381 494.937 160.015 489.09 162.437C483.242 164.859 478.245 168.96 474.728 174.223C471.212 179.485 469.335 185.672 469.335 192.001C469.335 200.488 472.707 208.627 478.708 214.628C484.709 220.63 492.849 224.001 501.336 224.001ZM501.336 181.334C503.445 181.334 505.508 181.96 507.262 183.132C509.016 184.304 510.383 185.97 511.19 187.919C511.998 189.868 512.209 192.013 511.797 194.082C511.386 196.151 510.37 198.052 508.878 199.543C507.386 201.035 505.486 202.051 503.417 202.463C501.347 202.874 499.203 202.663 497.254 201.856C495.305 201.048 493.639 199.681 492.467 197.927C491.294 196.173 490.669 194.111 490.669 192.001C490.669 189.172 491.793 186.459 493.793 184.458C495.793 182.458 498.507 181.334 501.336 181.334Z" fill="black"/>
</svg>
