<svg height="464pt" viewBox="0 0 464 464" width="464pt" xmlns="http://www.w3.org/2000/svg"><path d="m48 232c.128906-101.566406 82.433594-183.871094 184-184v-48c-128.128906 0-232 103.871094-232 232s103.871094 232 232 232v-48c-101.566406-.128906-183.871094-82.433594-184-184zm0 0" fill="#2488ff"/><path d="m232 0v48c101.621094 0 184 82.378906 184 184s-82.378906 184-184 184v48c128.128906 0 232-103.871094 232-232s-103.871094-232-232-232zm0 0" fill="#3c95ff"/><path d="m416 232c-.128906-101.566406-82.433594-183.871094-184-184v368c101.566406-.128906 183.871094-82.433594 184-184zm0 0" fill="#f1f2f2"/><path d="m48 232c.128906 101.566406 82.433594 183.871094 184 184v-368c-101.566406.128906-183.871094 82.433594-184 184zm0 0" fill="#e6e7e8"/><path d="m260.089844 247.03125c-5.503906 10.417969-16.308594 16.941406-28.089844 16.96875l30.160156 52.238281c2.722656 5.210938 8.085938 8.503907 13.960938 8.582031 5.875.082032 11.324218-3.066406 14.1875-8.199218 2.863281-5.132813 2.683594-11.421875-.46875-16.382813zm0 0" fill="#d80027"/><path d="m212.640625 206.558594c-12.167969 9.28125-16.0625 25.878906-9.292969 39.605468 6.769532 13.722657 22.3125 20.730469 37.082032 16.722657 14.769531-4.007813 24.632812-17.914063 23.535156-33.179688-1.101563-15.265625-12.855469-27.613281-28.042969-29.46875-1.300781-.160156-2.613281-.242187-3.921875-.238281-6.996094.019531-13.792969 2.320312-19.359375 6.558594zm0 0" fill="#005ece"/><path d="m212.640625 206.558594c5.566406-4.238282 12.363281-6.539063 19.359375-6.558594 1.308594-.003906 2.621094.078125 3.921875.238281l-13.441406-76.078125c-1.007813-5.714844-5.957031-9.890625-11.761719-9.921875-.695312.015625-1.390625.070313-2.078125.160157-3.144531.546874-5.9375 2.324218-7.769531 4.933593-1.832032 2.613281-2.546875 5.847657-1.992188 8.988281zm0 0" fill="#ffcd00"/><g fill="#57a4ff"><path d="m224 72h16v32h-16zm0 0"/><path d="m145.078125 97.441406 13.855469-8 16 27.710938-13.855469 8zm0 0"/><path d="m89.433594 158.933594 8-13.855469 27.710937 16-8 13.855469zm0 0"/><path d="m72 224h32v16h-32zm0 0"/><path d="m89.4375 305.070312 27.714844-15.996093 8 13.855469-27.714844 16zm0 0"/><path d="m145.070312 366.566406 15.996094-27.710937 13.859375 7.996093-15.996093 27.714844zm0 0"/><path d="m224 360h16v32h-16zm0 0"/><path d="m289.070312 346.84375 13.855469-8 16 27.710938-13.855469 8zm0 0"/><path d="m338.855469 302.933594 8-13.855469 27.710937 16-8 13.855469zm0 0"/><path d="m360 224h32v16h-32zm0 0"/><path d="m338.84375 161.070312 27.714844-15.996093 8 13.855469-27.714844 16zm0 0"/><path d="m289.074219 117.148438 15.996093-27.714844 13.855469 8-15.996093 27.714844zm0 0"/></g></svg>