<svg width="32" height="32" viewBox="0 0 32 32" fill="none" xmlns="http://www.w3.org/2000/svg">
<g id="online-achievement_16917678 1" clip-path="url(#clip0_799_356)">
<g id="_x32_4_Digital_Badges">
<g id="Group">
<path id="Vector" d="M0.977032 7.32695V25.6344C0.977032 26.464 1.64953 27.1365 2.47916 27.1365H29.5174C30.347 27.1365 31.0195 26.464 31.0195 25.6344V7.32695C31.0195 6.49733 30.347 5.82483 29.5174 5.82483H2.47916C1.64953 5.82483 0.977032 6.49733 0.977032 7.32695Z" fill="#ECF7FE"/>
<path id="Vector_2" opacity="0.1" d="M0.977032 23.8857V25.6342C0.977032 26.4634 1.64997 27.1363 2.47916 27.1363H29.5174C30.3466 27.1363 31.0195 26.4634 31.0195 25.6342V7.32628C31.0195 6.4971 30.3466 5.82416 29.5174 5.82416H28.532C27.796 16.0176 19.297 25.5561 8.91728 25.5561C6.09022 25.5561 3.40441 24.9612 0.977032 23.8857Z" fill="black"/>
<path id="Vector_3" d="M0.977032 21.206V25.6342C0.977032 26.4634 1.64997 27.1364 2.47916 27.1364H29.5174C30.3466 27.1364 31.0195 26.4634 31.0195 25.6342V21.206C31.0195 22.0352 30.3466 22.7081 29.5174 22.7081H2.47916C1.64997 22.7081 0.977032 22.0351 0.977032 21.206Z" fill="#554E56"/>
<path id="Vector_4" d="M19.8242 27.1365H12.1683V31.0213H19.8242V27.1365Z" fill="#ECF7FE"/>
<path id="Vector_5" d="M12.8126 8.6366V18.1387C12.8126 18.391 13.0808 18.553 13.3041 18.4354L16 17.0163V8.6366H12.8126Z" fill="#F35059"/>
<path id="Vector_6" d="M16.0001 8.6366V17.0163L18.696 18.4348C18.9193 18.5523 19.1875 18.3903 19.1875 18.138V8.6366H16.0001Z" fill="#F35059"/>
<path id="Vector_7" opacity="0.1" d="M12.8117 12.9469V18.1386C12.8117 18.3911 13.0808 18.5521 13.3056 18.4356L16 17.0148V15.977C14.5099 15.4082 13.3445 14.3066 12.8117 12.9469Z" fill="black"/>
<path id="Vector_8" opacity="0.1" d="M15.9992 15.9771V17.0149L18.6964 18.4356C18.9184 18.5522 19.1875 18.3912 19.1875 18.1387V16.3378C18.9017 16.3767 18.6076 16.3961 18.3079 16.3961C17.4866 16.3961 16.7068 16.2462 15.9992 15.9771Z" fill="black"/>
<path id="Vector_9" d="M10.3443 10.1573L10.343 10.1614C10.059 11.0675 10.7297 11.991 11.6793 12.0011L11.6865 12.0011C12.2895 12.0075 12.8223 12.3951 13.0141 12.9668C13.3164 13.8681 14.4032 14.2215 15.1778 13.6703L15.1802 13.6686C15.6717 13.3189 16.3308 13.3189 16.8223 13.6686L16.8246 13.6703C17.5991 14.2215 18.686 13.8681 18.9883 12.9668C19.18 12.3951 19.7128 12.0075 20.3158 12.0011L20.3197 12.0011C21.2692 11.991 21.94 11.0675 21.6558 10.1614L21.6548 10.1581C21.4745 9.58302 21.6779 8.95683 22.1617 8.59752L22.1665 8.59402C22.9293 8.02746 22.9288 6.88527 22.1654 6.3194L22.1628 6.31746C21.6784 5.9584 21.4745 5.33202 21.6547 4.75658L21.656 4.75227C21.94 3.84558 21.268 2.92202 20.318 2.91302H20.3175C19.7137 2.90733 19.1799 2.51933 18.9881 1.94677L18.9878 1.94596C18.6858 1.04433 17.5987 0.690709 16.824 1.24196L16.8223 1.24321C16.3308 1.59296 15.6717 1.59296 15.1802 1.24321L15.1784 1.24196C14.4037 0.690646 13.3166 1.04433 13.0146 1.94596L13.0143 1.94677C12.8225 2.51933 12.2888 2.90733 11.6849 2.91302L11.681 2.91308C10.731 2.92202 10.0591 3.84558 10.343 4.75227L10.3445 4.75727C10.5246 5.33233 10.321 5.95833 9.83715 6.31752L9.8339 6.3199C9.07159 6.88577 9.07103 8.02671 9.83284 8.59327L9.83822 8.59727C10.3213 8.95683 10.5244 9.58265 10.3443 10.1573Z" fill="#ECF7FE"/>
<path id="Vector_10" opacity="0.1" d="M9.83172 8.59185L9.83534 8.5991C10.3188 8.95535 10.5225 9.58428 10.3407 10.1587V10.1623C10.0571 11.0676 10.726 11.991 11.6749 12.0019H11.6822C12.2857 12.0092 12.8201 12.3945 13.0127 12.9653C13.2163 13.5725 13.7762 13.9324 14.3578 13.9324C14.6378 13.9324 14.925 13.8488 15.1758 13.6707V13.667C15.6703 13.318 16.3283 13.318 16.8191 13.667L16.8227 13.6707C17.5971 14.2232 18.6841 13.867 18.9858 12.9653C19.084 12.6818 19.2622 12.4418 19.4948 12.271C19.7275 12.1037 20.0111 12.0056 20.3128 12.002H20.3165C20.9308 11.9947 21.4326 11.6057 21.6289 11.0822C20.8545 11.3803 20.0147 11.5438 19.135 11.5438C15.274 11.5438 12.1475 8.41366 12.1475 4.55641C12.1475 3.91653 12.2348 3.29853 12.3948 2.70953C12.1839 2.83678 11.9403 2.90947 11.6822 2.9131H11.6786C10.7297 2.92035 10.0572 3.84378 10.3407 4.75266V4.75628C10.5225 5.33072 10.3189 5.95966 9.83541 6.31591L9.83178 6.31953C9.06828 6.88678 9.06828 8.02835 9.83172 8.59185Z" fill="black"/>
<path id="Vector_11" d="M13.9904 8.02234L13.6317 10.1149C13.5846 10.3893 13.8727 10.5986 14.1191 10.469L15.9982 9.48066L17.878 10.469C18.1245 10.5985 18.4125 10.3892 18.3654 10.1148L18.0059 8.02234L19.527 6.54009C19.7265 6.34578 19.6165 6.00716 19.3409 5.96709L17.2394 5.66153L16.2994 3.75697C16.1761 3.50728 15.8201 3.50728 15.6969 3.75697L14.7569 5.66153L12.656 5.96709C12.3805 6.00716 12.2705 6.34572 12.4699 6.54003L13.9904 8.02234Z" fill="#F4DC3F"/>
<path id="Vector_12" opacity="0.1" d="M12.4691 6.54139L13.9924 8.02102L13.6324 10.1151C13.5852 10.3878 13.8724 10.5986 14.1196 10.4677L15.9992 9.47883L17.8788 10.4677C18.1259 10.5986 18.4132 10.3877 18.3659 10.1151L18.1733 8.98808C16.2755 8.83539 14.7086 7.51208 14.1996 5.74152L12.6546 5.96695C12.3819 6.00695 12.2691 6.34508 12.4691 6.54139Z" fill="black"/>
<path id="Vector_13" d="M2.479 5.52425H10.0522C10.1219 5.30838 10.1261 5.07075 10.0546 4.84213C9.89062 4.31844 9.98156 3.76363 10.3043 3.31976C10.6273 2.87557 11.1276 2.61794 11.6806 2.61269C12.1556 2.60832 12.5766 2.30232 12.728 1.85075C12.9026 1.32969 13.3024 0.933317 13.825 0.763442C14.3472 0.593005 14.9032 0.67838 15.3524 0.998755C15.7394 1.27338 16.2592 1.27363 16.648 0.997317C17.0951 0.678692 17.652 0.593317 18.1742 0.763505C18.6967 0.93338 19.0966 1.32975 19.2714 1.85169C19.4222 2.30263 19.8433 2.60832 20.3191 2.61275C20.8681 2.618 21.3683 2.87563 21.6913 3.31982C22.0141 3.76369 22.105 4.3185 21.9395 4.84663C21.8687 5.07269 21.8736 5.309 21.9437 5.52438H29.5172C30.5112 5.52438 31.3198 6.33294 31.3198 7.32694V21.2031C31.3198 21.2041 31.3203 21.2049 31.3203 21.206V25.6344C31.3203 26.6284 30.5118 27.437 29.5178 27.437H29.5172H20.1264V30.7206L22.1449 30.7203C22.3106 30.7203 22.4453 30.8547 22.4453 31.0208C22.4453 31.1865 22.3109 31.3212 22.1449 31.3212L19.8274 31.3214C19.8269 31.3214 19.8264 31.3218 19.8259 31.3218H17.2274L9.85125 31.3226C9.6855 31.3226 9.55081 31.1883 9.55081 31.0222C9.55081 30.8564 9.68519 30.7218 9.85125 30.7218L11.8697 30.7215V27.4369H2.47956H2.479C1.485 27.4369 0.676437 26.6283 0.676437 25.6343V7.32682C0.676437 6.33282 1.485 5.52425 2.479 5.52425ZM21.3677 4.66257C21.4742 4.32225 21.4152 3.96163 21.2051 3.67294C20.9954 3.38457 20.67 3.21701 20.3132 3.21351C19.5816 3.20675 18.9338 2.73613 18.7014 2.04144C18.5878 1.70288 18.3279 1.44525 17.9884 1.33494C17.8737 1.29769 17.7567 1.27919 17.6407 1.27919C17.4128 1.27919 17.1886 1.35019 16.9947 1.48807C16.3991 1.91144 15.5996 1.912 15.0023 1.48663C14.7116 1.2795 14.3498 1.22463 14.0107 1.33463C13.6712 1.44525 13.4113 1.70282 13.2974 2.04225C13.0648 2.73613 12.4172 3.20669 11.6823 3.21344C11.3252 3.21694 11.0002 3.38419 10.7904 3.67288C10.5804 3.96125 10.5214 4.32213 10.6294 4.66744C10.8476 5.36363 10.6003 6.12382 10.0112 6.561C9.72512 6.77369 9.56081 7.09994 9.56056 7.45669C9.56056 7.81313 9.72425 8.13938 10.0159 8.35619C10.6009 8.79132 10.8473 9.55144 10.6294 10.2471L10.3428 10.1573L10.6279 10.2509C10.5214 10.5912 10.5804 10.9518 10.7899 11.2405C10.9994 11.5289 11.3241 11.6968 11.6882 11.7006C12.4185 11.7085 13.0651 12.1788 13.2975 12.8712C13.4111 13.2098 13.6707 13.4671 14.0101 13.5774C14.3487 13.6883 14.7107 13.6326 15.0044 13.4239C15.5994 13 16.3998 13.0003 16.9971 13.4254C17.2879 13.6322 17.6496 13.6877 17.9891 13.5774C18.3285 13.4671 18.5882 13.2098 18.7017 12.8712C18.9341 12.1788 19.5807 11.7085 20.3147 11.7006C20.6715 11.6968 20.9963 11.5289 21.2057 11.2405C21.4152 10.9518 21.4742 10.5913 21.3665 10.2479C21.1479 9.55175 21.3949 8.79157 21.9856 8.35263C22.2722 8.13994 22.4362 7.81338 22.4362 7.45663C22.4359 7.09957 22.2713 6.77301 21.9823 6.55888C21.3956 6.12425 21.1479 5.36375 21.3677 4.66257ZM16.2997 16.835L18.8351 18.1688C18.8401 18.1714 18.8527 18.1781 18.8694 18.1679C18.8862 18.1576 18.8862 18.1433 18.8862 18.1379V13.7009C18.6934 13.9034 18.4521 14.0588 18.1748 14.149C17.6528 14.3189 17.0963 14.2338 16.6462 13.9134C16.5392 13.8374 16.4215 13.7845 16.2997 13.7506V16.835ZM15.6988 13.7508C15.5764 13.785 15.4581 13.8382 15.3503 13.9149C15.0539 14.1258 14.7098 14.2347 14.3595 14.2347C14.1808 14.2347 14.0004 14.2063 13.8241 14.149C13.5465 14.0588 13.3052 13.9031 13.1123 13.7003V18.1385C13.1123 18.1438 13.1123 18.1582 13.1293 18.1684C13.1458 18.1787 13.1586 18.1719 13.1634 18.1696L15.6988 16.835V13.7508ZM29.5172 6.12513H22.3993C22.8039 6.45232 23.0369 6.93213 23.0371 7.4565C23.0374 8.00544 22.7848 8.50801 22.3394 8.83869C21.9583 9.1215 21.7978 9.61557 21.9408 10.0715C22.1051 10.5949 22.0144 11.1497 21.6919 11.5936C21.3695 12.0375 20.8701 12.2957 20.3174 12.3016C19.9907 12.305 19.6923 12.4533 19.4871 12.6907V18.1379C19.4871 18.3627 19.3721 18.5663 19.1799 18.6822C19.0781 18.7435 18.9652 18.7743 18.8516 18.7743C18.7504 18.7743 18.6492 18.7499 18.5553 18.7004L15.9993 17.3558L13.443 18.7013C13.3494 18.7506 13.2482 18.7752 13.147 18.7752C13.0334 18.7752 12.9202 18.7441 12.8187 18.6828C12.6262 18.5666 12.5115 18.3633 12.5115 18.1385V12.6903C12.3059 12.4531 12.006 12.305 11.6744 12.3016C11.1258 12.2957 10.6262 12.0375 10.3037 11.5936C9.98425 11.1538 9.89212 10.6049 10.0564 10.0677H10.0561C10.1978 9.61532 10.0376 9.1215 9.65181 8.83457C9.21175 8.50713 8.95944 8.00488 8.95969 7.4565C8.95994 6.93332 9.19181 6.45407 9.59813 6.12513H2.479C1.81625 6.12513 1.27725 6.66407 1.27725 7.32688V21.203C1.27725 21.204 1.27781 21.2049 1.27781 21.2059C1.27781 21.8687 1.81675 22.4077 2.47956 22.4077H29.5178C30.1786 22.4077 30.7157 21.8718 30.7189 21.2118V7.32682C30.7189 6.66407 30.1799 6.12513 29.5172 6.12513ZM12.4707 30.7208H17.2274L19.5255 30.7206V27.4369H12.4707V30.7208ZM12.1702 26.8361H19.8259H29.5172C30.1799 26.8361 30.7189 26.2971 30.7189 25.6343V22.5489C30.3998 22.8343 29.9787 23.0084 29.5178 23.0084H2.47969C2.0185 23.0084 1.59719 22.8342 1.27794 22.5484V25.6343C1.27794 26.297 1.81687 26.836 2.47969 26.836H12.1702V26.8361Z" fill="black"/>
<path id="Vector_14" d="M18.3289 8.12716L18.6616 10.0635C18.7029 10.3041 18.6061 10.5427 18.4089 10.6861C18.2112 10.8302 17.9547 10.848 17.7382 10.7348L15.9984 9.81998L14.2589 10.735C14.1651 10.7844 14.0636 10.8087 13.9623 10.8087C13.8309 10.8087 13.7003 10.7673 13.5886 10.686C13.3914 10.5426 13.2945 10.304 13.3359 10.064L13.6677 8.1271L12.2607 6.75523C12.0858 6.58504 12.0239 6.3351 12.0993 6.10304C12.1744 5.87098 12.3713 5.70491 12.6131 5.66973L14.5576 5.38691L15.4278 3.62391C15.5357 3.40504 15.7544 3.26923 15.9984 3.26923C16.2426 3.26923 16.4611 3.40504 16.5691 3.62391L17.4389 5.38691L19.3847 5.66973C19.6261 5.70491 19.823 5.87098 19.8981 6.10304C19.9735 6.3351 19.9116 6.5851 19.7371 6.75498L18.3289 8.12716ZM19.2982 6.26416L17.1964 5.95873C17.0984 5.94466 17.0139 5.88304 16.9702 5.79441L16.0304 3.88973C16.0246 3.87798 15.9724 3.87798 15.9665 3.88973L15.0265 5.79441C14.9828 5.88304 14.8983 5.9446 14.8003 5.95873L12.6996 6.26416C12.6929 6.26535 12.6776 6.26741 12.6709 6.28854C12.6641 6.30935 12.675 6.32023 12.68 6.32491L14.2003 7.80741C14.271 7.87635 14.3033 7.97579 14.2866 8.07323L13.9281 10.166C13.9269 10.173 13.9246 10.1874 13.9421 10.2003C13.96 10.2132 13.9735 10.2059 13.9794 10.2032L15.8586 9.21479C15.9026 9.1916 15.9504 9.18016 15.9985 9.18016C16.0466 9.18016 16.0944 9.1916 16.1384 9.21479L18.0179 10.2029C18.0234 10.2059 18.0372 10.2132 18.0554 10.2003C18.0733 10.1874 18.0707 10.1721 18.0695 10.1654L17.7101 8.07316C17.6934 7.97579 17.7257 7.87629 17.7964 7.80735L19.3179 6.32454C19.3226 6.32016 19.3334 6.30929 19.3267 6.28848C19.3199 6.26735 19.3047 6.26535 19.2982 6.26416Z" fill="black"/>
</g>
</g>
</g>
<defs>
<clipPath id="clip0_799_356">
<rect width="32" height="32" fill="white" transform="matrix(-1 0 0 1 32 0)"/>
</clipPath>
</defs>
</svg>
