<svg width="683" height="683" viewBox="0 0 683 683" fill="none" xmlns="http://www.w3.org/2000/svg">
<g clip-path="url(#clip0_168_200)">
<path d="M341.335 682.67C529.849 682.67 682.67 529.849 682.67 341.335C682.67 152.821 529.849 0 341.335 0C152.821 0 0 152.821 0 341.335C0 529.849 152.821 682.67 341.335 682.67Z" fill="url(#paint0_linear_168_200)"/>
<path fill-rule="evenodd" clip-rule="evenodd" d="M236.927 427.271C232.911 427.271 228.895 425.665 224.879 424.059C219.257 420.846 215.242 415.224 213.635 409.602L159.022 203.998C157.416 197.573 158.219 191.148 161.431 185.526C164.644 180.707 169.463 176.691 175.888 174.282L318.044 136.534C330.894 133.322 343.744 140.55 347.76 153.4L402.374 359.004C405.586 371.854 398.358 383.902 385.508 388.72L243.352 426.468C240.942 426.468 239.336 427.271 236.927 427.271Z" fill="white"/>
<path fill-rule="evenodd" clip-rule="evenodd" d="M385.508 472.247C383.902 472.247 381.492 471.444 379.886 471.444C379.083 471.444 379.083 471.444 379.083 471.444L250.58 436.106L387.114 399.964H387.917L389.523 399.161C406.389 393.539 417.633 375.87 413.618 358.201V357.398L371.051 198.376L447.35 219.258C459.397 222.47 467.428 236.124 464.216 248.974L408.799 454.578C406.389 465.019 396.752 472.247 385.508 472.247Z" fill="white"/>
<path fill-rule="evenodd" clip-rule="evenodd" d="M350.17 546.939C344.548 546.939 338.123 544.53 333.304 539.711L236.927 444.137L375.067 481.885C376.673 482.688 377.476 482.688 378.28 482.688C380.689 482.688 383.098 483.491 385.508 483.491C401.571 483.491 415.224 473.05 419.24 457.791L461.806 299.572L517.223 355.792C526.861 365.429 526.861 379.886 517.223 389.524L367.036 539.711C362.217 544.53 356.595 546.939 350.17 546.939Z" fill="white"/>
</g>
<defs>
<linearGradient id="paint0_linear_168_200" x1="341.335" y1="682.67" x2="341.335" y2="0" gradientUnits="userSpaceOnUse">
<stop stop-color="#1AA8DC"/>
<stop offset="0.490196" stop-color="#AE3B89"/>
<stop offset="1" stop-color="#F26270"/>
</linearGradient>
<clipPath id="clip0_168_200">
<rect width="682.67" height="682.67" fill="white"/>
</clipPath>
</defs>
</svg>
