<svg height="512" viewBox="0 0 64 64" width="512" xmlns="http://www.w3.org/2000/svg"><g id="_14-Money" data-name="14-Money"><path d="m23 16.5a1.558 1.558 0 0 1 .087-.5 1.558 1.558 0 0 0 -.087.5z" fill="#a80132"/><path d="m40.913 16a1.558 1.558 0 0 1 .087.5 1.558 1.558 0 0 0 -.087-.5z" fill="#a80132"/><path d="m40.913 13a1.558 1.558 0 0 1 .087.5 1.558 1.558 0 0 0 -.087-.5z" fill="#a80132"/><path d="m23 13.5a1.558 1.558 0 0 1 .087-.5 1.558 1.558 0 0 0 -.087.5z" fill="#a80132"/><path d="m22.338 3.27c.075.051.154.1.241.152.036.021.074.041.112.062.1.052.2.1.311.155.033.016.067.032.1.047a12.566 12.566 0 0 0 2.5.75l.036.007c.26.053.531.1.815.15a34.413 34.413 0 0 0 5.547.407c5.52 0 9-1 10-2 0 0-2-2-10-2s-10 2-10 2a2.3 2.3 0 0 0 .25.21c.027.02.059.04.088.06z" fill="#de8800"/><path d="m23.1 3.686c-.035-.015-.069-.031-.1-.047.036.016.068.032.1.047z" fill="#ffc608"/><path d="m22.691 3.484c-.038-.021-.076-.041-.112-.062.036.021.074.041.112.062z" fill="#ffc608"/><path d="m22.338 3.27c-.029-.02-.061-.04-.088-.06.027.02.059.04.088.06z" fill="#ffc608"/><path d="m25.639 4.443-.039-.007z" fill="#ffc608"/><path d="m26.454 4.593.346 1.207a5.786 5.786 0 0 0 5.564 4.2h4.365a5.224 5.224 0 0 0 3.348-1.231l1.923-5.769c-1 1-4.48 2-10 2a34.413 34.413 0 0 1 -5.546-.407z" fill="#ffc608"/><path d="m37.06 18h-6.052a25.655 25.655 0 0 0 -13.008 23c0 19 39 16 39 7 0-7.24-8.56-25.52-19.94-30z" fill="#ffc608"/><path d="" fill="#7d0126"/><path d="" fill="#7d0126"/><path d="" fill="#7d0126"/><path d="" fill="#7d0126"/><path d="m22.579 3.422c-.087-.05-.166-.1-.241-.152.075.051.154.102.241.152z" fill="#f09413"/><path d="m26.454 4.593c-.284-.046-.555-.1-.815-.15.261.057.531.104.815.15z" fill="#f09413"/><path d="m23 3.639c-.111-.051-.214-.1-.311-.155.098.052.202.104.311.155z" fill="#f09413"/><path d="m22 3a2.3 2.3 0 0 0 .25.21 2.3 2.3 0 0 1 -.25-.21z" fill="#f09413"/><path d="m25.6 4.436a12.566 12.566 0 0 1 -2.5-.75 12.566 12.566 0 0 0 2.5.75z" fill="#f09413"/><path d="m63 25-3.33 1.67-1.67 3.33-1.67-3.33-3.33-1.67 3.33-1.67 1.67-3.33 1.67 3.33z" fill="#ff9c00"/><path d="m11 13-3.33 1.67-1.67 3.33-1.67-3.33-3.33-1.67 3.33-1.67 1.67-3.33 1.67 3.33z" fill="#ff9c00"/><path d="m41.24 39.75a3.348 3.348 0 0 0 -.24 1.25v14.03c-.99.03-1.99.03-3-.02v-11.01c0-1.66 1.24-3.16 3.24-4.25z" fill="#f09413"/><path d="m40.033 4.012a25.533 25.533 0 0 0 -8.033-1.012 25.533 25.533 0 0 0 -8.033 1.012 27.192 27.192 0 0 0 8.033.988 27.192 27.192 0 0 0 8.033-.988z" fill="#c97c10"/><path d="m40.913 16a1.427 1.427 0 0 0 -1.333-1 1.463 1.463 0 0 0 1.42-1.5 1.558 1.558 0 0 0 -.087-.5 1.427 1.427 0 0 0 -1.333-1h-15.16a1.427 1.427 0 0 0 -1.333 1 1.558 1.558 0 0 0 -.087.5 1.463 1.463 0 0 0 1.42 1.5 1.427 1.427 0 0 0 -1.333 1 1.558 1.558 0 0 0 -.087.5 1.463 1.463 0 0 0 1.42 1.5h15.16a1.463 1.463 0 0 0 1.42-1.5 1.558 1.558 0 0 0 -.087-.5z" fill="#a80132"/><path d="m38.16 12h.84l1.077-3.231a5.224 5.224 0 0 1 -3.348 1.231h-4.365a5.786 5.786 0 0 1 -5.564-4.2l-.346-1.21c-.284-.046-.555-.1-.815-.15l-.039-.004a12.566 12.566 0 0 1 -2.5-.75c-.036-.015-.068-.031-.1-.047-.111-.051-.215-.1-.311-.155-.038-.021-.076-.041-.112-.062-.087-.05-.166-.1-.241-.152-.029-.02-.061-.04-.088-.06a2.3 2.3 0 0 1 -.248-.21l3 9z" fill="#f09413"/><path d="m18 41a25.655 25.655 0 0 1 13.008-23h-4.068c-11.38 4.48-19.94 22.76-19.94 30 0 8.28 11.19 15 25 15s25-6.72 25-15c0 9-39 12-39-7z" fill="#ff9c00"/><g fill="#fa0"><path d="m33 51v.967a5.292 5.292 0 0 0 3.89-2.077 5.271 5.271 0 0 1 -3.216 1.11z"/><path d="m31 51h-5a1 1 0 0 1 -1-1v-1h-1v2a1 1 0 0 0 1 1h5v2h2v-1h-1z"/><path d="m35 31h-2v1h1v1h2v-1h-1z"/><path d="m31 29v-1h-1v1.033c.11-.007.214-.033.326-.033z"/><path d="m31 40.618-3.056-1.528a5.286 5.286 0 0 1 -1.834-7.98 5.3 5.3 0 0 0 .834 8.98l3.056 1.528v7.382h1z"/><path d="m27.533 32.533a3.3 3.3 0 0 1 1.793-.533h.674v5.882l1 .5v-7.382h-.674a3.322 3.322 0 0 0 -2.793 1.533z"/><path d="m37 45.674a3.308 3.308 0 0 0 -1.838-2.974l-2.162-1.082v1.5l1.162.581a3.312 3.312 0 0 1 1.3 4.768 3.322 3.322 0 0 0 1.538-2.793z"/></g><path d="m41 57v-16a3.348 3.348 0 0 1 .24-1.25c-2 1.09-3.24 2.59-3.24 4.25v16a3.843 3.843 0 0 0 .92 2.41 33.455 33.455 0 0 0 5.13-1.27c-1.89-1.07-3.05-2.53-3.05-4.14z" fill="#ff9c00"/><path d="m63 53v4c0 3.31-4.92 6-11 6s-11-2.69-11-6v-4c0 3.31 4.92 6 11 6s11-2.69 11-6z" fill="#ffcb52"/><path d="m63 45v4c0 3.31-4.92 6-11 6s-11-2.69-11-6v-4c0 3.31 4.92 6 11 6s11-2.69 11-6z" fill="#ffcb52"/><path d="m63 49v4c0 3.31-4.92 6-11 6s-11-2.69-11-6v-4c0 3.31 4.92 6 11 6s11-2.69 11-6z" fill="#f09413"/><path d="m63 41v4c0 3.31-4.92 6-11 6s-11-2.69-11-6v-4c0 3.31 4.92 6 11 6s11-2.69 11-6z" fill="#f09413"/><path d="m63 41c0 3.31-4.92 6-11 6s-11-2.69-11-6 4.92-6 11-6 11 2.69 11 6zm-4 0c0-1.66-3.13-3-7-3s-7 1.34-7 3 3.13 3 7 3 7-1.34 7-3z" fill="#ffc052"/><ellipse cx="52" cy="41" fill="#ffdf75" rx="7" ry="3"/><path d="m63 43v2c0 3.31-4.92 6-11 6a17.254 17.254 0 0 1 -7-1.37c-2.44-1.1-4-2.77-4-4.63v-4c0 1.86 1.56 3.53 4 4.63a2.827 2.827 0 0 0 2.06 2.735 18.813 18.813 0 0 0 4.94.635c6.08 0 11-2.69 11-6z" fill="#de8800"/><path d="m63 47v2c0 3.31-4.92 6-11 6a17.254 17.254 0 0 1 -7-1.37c-2.44-1.1-4-2.77-4-4.63v-4c0 1.86 1.56 3.53 4 4.63a2.827 2.827 0 0 0 2.06 2.735 18.813 18.813 0 0 0 4.94.635c6.08 0 11-2.69 11-6z" fill="#de8800"/><path d="m63 51v2c0 3.31-4.92 6-11 6a17.254 17.254 0 0 1 -7-1.37c-2.44-1.1-4-2.77-4-4.63v-4c0 1.86 1.56 3.53 4 4.63a2.827 2.827 0 0 0 2.06 2.735 18.813 18.813 0 0 0 4.94.635c6.08 0 11-2.69 11-6z" fill="#de8800"/><path d="m63 55v2c0 3.31-4.92 6-11 6a17.254 17.254 0 0 1 -7-1.37c-2.44-1.1-4-2.77-4-4.63v-4c0 1.86 1.56 3.53 4 4.63a2.827 2.827 0 0 0 2.06 2.735 18.813 18.813 0 0 0 4.94.635c6.08 0 11-2.69 11-6z" fill="#de8800"/><path d="m32 62c-13.234 0-24-6.28-24-14 0-7.218 8.653-24.727 19.147-29h9.707c4.98 2.029 10.134 7.294 14.166 14.488l1.745-.977c-2.143-3.826-6.33-10.157-12.11-13.783a2.516 2.516 0 0 0 .845-3.728 2.523 2.523 0 0 0 .5-1.5 2.489 2.489 0 0 0 -1.659-2.361l2.608-7.823a.99.99 0 0 0 -.249-1.016l.009-.009c-.236-.233-2.531-2.291-10.709-2.291s-10.473 2.058-10.707 2.293l.007.007a.992.992 0 0 0 -.25 1.014l2.608 7.823a2.489 2.489 0 0 0 -1.658 2.363 2.523 2.523 0 0 0 .5 1.5 2.515 2.515 0 0 0 .849 3.728c-10.049 6.372-17.349 22.372-17.349 29.272 0 8.822 11.664 16 26 16a41 41 0 0 0 9.216-1.024l-.451-1.95a38.87 38.87 0 0 1 -8.765.974zm-7.579-46h15.158a.507.507 0 0 1 0 1h-15.158a.507.507 0 0 1 0-1zm-.421-2.5a.466.466 0 0 1 .421-.5h15.158a.507.507 0 0 1 0 1h-15.158a.466.466 0 0 1 -.421-.5zm1.721-2.5-2-6.013a28.7 28.7 0 0 0 8.279 1.013 28.7 28.7 0 0 0 8.284-1.013l-2 6.013zm14.157-7.982a25.619 25.619 0 0 1 -7.878.982 25.655 25.655 0 0 1 -7.875-.981 23.96 23.96 0 0 1 7.875-1.019 24.013 24.013 0 0 1 7.878 1.018z"/><path d="m33 53v-2h.674a5.326 5.326 0 0 0 2.382-10.09l-3.056-1.528v-8.382h2v1h2v-2a1 1 0 0 0 -1-1h-3v-2h-2v2h-.674a5.326 5.326 0 0 0 -2.382 10.09l3.056 1.528v8.382h-4v-1h-2v2a1 1 0 0 0 1 1h5v2zm-4.162-15.7a3.326 3.326 0 0 1 1.488-6.3h.674v7.382zm4.162 4.318 2.162 1.082a3.326 3.326 0 0 1 -1.488 6.3h-.674z"/><path d="m42.757 3h8.485v2h-8.485z" transform="matrix(.707 -.707 .707 .707 10.938 34.406)"/><path d="m42.789 8h14.422v2h-14.422z" transform="matrix(.832 -.555 .555 .832 3.405 29.247)"/><path d="m16-.243h2v8.485h-2z" transform="matrix(.707 -.707 .707 .707 2.151 13.192)"/><path d="m13 1.789h2v14.422h-2z" transform="matrix(.555 -.832 .832 .555 -1.254 15.656)"/><path d="m52.553 24.105a1 1 0 0 0 0 1.789l3.035 1.518 1.517 3.035a1 1 0 0 0 1.79 0l1.517-3.035 3.035-1.518a1 1 0 0 0 0-1.789l-3.035-1.518-1.512-3.035a1.043 1.043 0 0 0 -1.79 0l-1.517 3.035zm4.675-.325.772-1.544.772 1.544a1 1 0 0 0 .447.448l1.545.772-1.545.772a1.007 1.007 0 0 0 -.447.447l-.772 1.545-.772-1.545a1.007 1.007 0 0 0 -.447-.447l-1.545-.772 1.545-.772a1 1 0 0 0 .447-.448z"/><path d="m6.9 18.447 1.517-3.035 3.035-1.518a1 1 0 0 0 0-1.789l-3.04-1.518-1.512-3.035a1.043 1.043 0 0 0 -1.79 0l-1.522 3.035-3.035 1.518a1 1 0 0 0 0 1.789l3.035 1.518 1.517 3.035a1 1 0 0 0 1.79 0zm-1.672-4.228a1.007 1.007 0 0 0 -.447-.447l-1.545-.772 1.545-.772a1 1 0 0 0 .447-.448l.772-1.544.772 1.544a1 1 0 0 0 .447.448l1.545.772-1.545.772a1.007 1.007 0 0 0 -.447.447l-.772 1.545z"/><path d="m52 34c-6.729 0-12 3.075-12 7v16c0 3.925 5.271 7 12 7s12-3.075 12-7v-16c0-3.925-5.271-7-12-7zm0 28c-5.42 0-10-2.29-10-5v-.082c2.132 1.871 5.778 3.082 10 3.082s7.868-1.211 10-3.082v.082c0 2.71-4.58 5-10 5zm0-4c-5.42 0-10-2.29-10-5v-.082c2.132 1.871 5.778 3.082 10 3.082s7.868-1.211 10-3.082v.082c0 2.71-4.58 5-10 5zm0-4c-5.42 0-10-2.29-10-5v-.082c2.132 1.871 5.778 3.082 10 3.082s7.868-1.211 10-3.082v.082c0 2.71-4.58 5-10 5zm0-4c-5.42 0-10-2.29-10-5v-.082c2.132 1.871 5.778 3.082 10 3.082s7.868-1.211 10-3.082v.082c0 2.71-4.58 5-10 5zm0-4c-5.42 0-10-2.29-10-5s4.58-5 10-5 10 2.29 10 5-4.58 5-10 5z"/><path d="m52 37c-3.976 0-8 1.374-8 4s4.024 4 8 4 8-1.374 8-4-4.024-4-8-4zm0 6c-3.722 0-6-1.3-6-2s2.278-2 6-2 6 1.3 6 2-2.278 2-6 2z"/></g></svg>