<?xml version="1.0" encoding="UTF-8" standalone="no"?>
<!-- Created with Inkscape (http://www.inkscape.org/) -->

<svg
   version="1.1"
   id="svg7734"
   xml:space="preserve"
   width="682.66669"
   height="682.66669"
   viewBox="0 0 682.66669 682.66669"
   xmlns="http://www.w3.org/2000/svg"
   xmlns:svg="http://www.w3.org/2000/svg"><defs
     id="defs7738"><clipPath
       clipPathUnits="userSpaceOnUse"
       id="clipPath7748"><path
         d="M 0,512 H 512 V 0 H 0 Z"
         id="path7746" /></clipPath></defs><g
     id="g7740"
     transform="matrix(1.3333333,0,0,-1.3333333,0,682.66667)"><g
       id="g7742"><g
         id="g7744"
         clip-path="url(#clipPath7748)"><g
           id="g7750"
           transform="translate(18.5,457.4355)"><path
             d="m 0,0 v -443.212 c 0,-3.688 3.01,-6.724 6.702,-6.724 h 106.944 228.881 45.435 c 3.692,0 6.731,3.036 6.731,6.724 v 406.843 l -0.028,4.17 c 0,0.595 -0.086,1.05 -0.285,1.475 h -54.409 c -14.823,0 -26.977,12.142 -26.977,26.979 l 0.057,50.469 c -0.54,0.255 -1.051,0.34 -1.761,0.34 H 306.264 6.702 C 3.01,47.064 0,44.058 0,40.369 Z"
             style="fill:#f9f7f7;fill-opacity:1;fill-rule:evenodd;stroke:none"
             id="path7752" /></g><g
           id="g7754"
           transform="translate(257.3203,504.5)"><path
             d="m 0,0 c 51.569,-53.079 85.135,-139.633 85.135,-237.394 0,-21.191 -1.59,-41.844 -4.572,-61.731 -0.965,-6.383 -2.073,-12.709 -3.322,-18.922 -1.506,-7.517 -3.209,-14.893 -5.112,-22.128 C 54.295,-408.006 19.339,-463.894 -25.216,-497 h 128.923 45.435 c 3.692,0 6.731,3.035 6.731,6.724 v 75.149 99.52 232.173 l -0.029,4.17 c 0,0.596 -0.085,1.05 -0.284,1.476 L 74.23,-0.341 C 73.691,-0.085 73.18,0 72.47,0 h -5.027 z"
             style="fill:#e2e2e2;fill-opacity:1;fill-rule:evenodd;stroke:none"
             id="path7756" /></g><g
           id="g7758"
           transform="translate(331.5508,504.1592)"><path
             d="m 0,0 -0.057,-50.469 c 0,-14.837 12.154,-26.978 26.977,-26.978 h 54.41 c -0.455,0.907 -1.477,1.702 -3.522,3.659 L 4.316,-3.772 C 2.044,-1.588 1.022,-0.511 0,0"
             style="fill:#cecece;fill-opacity:1;fill-rule:evenodd;stroke:none"
             id="path7760" /></g><g
           id="g7762"
           transform="translate(331.5508,504.1592)"><path
             d="m 0,0 -0.057,-50.469 c 0,-14.837 12.154,-26.978 26.977,-26.978 h 49.327"
             style="fill:none;stroke:#000000;stroke-width:15;stroke-linecap:round;stroke-linejoin:round;stroke-miterlimit:10;stroke-dasharray:none;stroke-opacity:1"
             id="path7764" /></g><g
           id="g7766"
           transform="translate(413.1929,241.0635)"><path
             d="M 0,0 V -101.931 -226.84 c 0,-3.688 -3.039,-6.723 -6.73,-6.723 h -274.317 -106.944 c -3.692,0 -6.702,3.035 -6.702,6.723 V 7.461 m 0,34.667 v 214.613 c 0,3.689 3.01,6.696 6.702,6.696 h 299.562 5.026 c 2.045,0 2.613,-0.823 6.077,-4.114 l 73.123,-69.646"
             style="fill:none;stroke:#000000;stroke-width:15;stroke-linecap:round;stroke-linejoin:round;stroke-miterlimit:10;stroke-dasharray:none;stroke-opacity:1"
             id="path7768" /></g><g
           id="g7770"
           transform="translate(330.2446,64.9756)"><path
             d="M 0,0 C -21.554,-2.411 -22.775,23.178 -30.925,21.646 -36.661,20.54 -38.45,11.66 -45.493,2.724 -52.989,-6.809 -59.549,-3.148 -66.932,4.199 -83.403,20.54 -85.703,-14.609 -105.751,3.773"
             style="fill:none;stroke:#000000;stroke-width:15;stroke-linecap:round;stroke-linejoin:round;stroke-miterlimit:10;stroke-dasharray:none;stroke-opacity:1"
             id="path7772" /></g><g
           id="g7774"
           transform="translate(423.1602,447.0527)"><path
             d="m 0,0 38.876,-11.604 9.939,33.221 C 51.995,32.313 45.861,43.66 35.184,46.837 24.479,50.043 13.12,43.915 9.939,33.22 Z"
             style="fill:#cecece;fill-opacity:1;fill-rule:evenodd;stroke:none"
             id="path7776" /></g><g
           id="g7778"
           transform="translate(325.644,101.1182)"><path
             d="M 0,0 3.891,-34.354 C 4.288,-36.596 4.26,-36.71 5.878,-34.95 L 27.971,-8.341 51.768,20.312 29.419,47.434 -4.146,36.993 Z"
             style="fill:#838383;fill-opacity:1;fill-rule:evenodd;stroke:none"
             id="path7780" /></g><g
           id="g7782"
           transform="translate(412.0854,441.0947)"><path
             d="m 0,0 -90.587,-302.983 27.942,-8.34 27.972,-8.341 83.942,280.741 6.645,22.214 c 1.419,4.681 -1.278,9.674 -5.963,11.063 L 11.075,5.958 C 6.389,7.348 1.391,4.681 0,0"
             style="fill:#fe9737;fill-opacity:1;fill-rule:evenodd;stroke:none"
             id="path7784" /></g><g
           id="g7786"
           transform="translate(452.5229,474.4854)"><path
             d="m 0,0 -9.939,-33.221 19.452,-5.815 9.939,33.221 C 22.632,4.88 16.499,16.228 5.821,19.404 2.271,20.454 -1.335,20.511 -4.686,19.688 0.113,14.582 2.13,7.149 0,0"
             style="fill:#b5adb6;fill-opacity:1;fill-rule:evenodd;stroke:none"
             id="path7788" /></g><g
           id="g7790"
           transform="translate(441.9307,407.96)"><path
             d="m 0,0 -80.052,-267.692 -3.89,-13.05 19.423,-5.787 83.943,280.741 6.645,22.214 c 1.419,4.68 -1.278,9.674 -5.964,11.063 L 0.653,33.305 C 5.339,31.887 8.037,26.922 6.645,22.241 Z"
             style="fill:#f36b37;fill-opacity:1;fill-rule:evenodd;stroke:none"
             id="path7792" /></g><g
           id="g7794"
           transform="translate(357.9888,127.2178)"><path
             d="m 0,0 -23.797,-28.652 -7.27,-8.739 2.613,-23.063 c 0.397,-2.241 0.369,-2.356 1.988,-0.596 l 22.092,26.61 23.797,28.653 z"
             style="fill:#595959;fill-opacity:1;fill-rule:evenodd;stroke:none"
             id="path7796" /></g><g
           id="g7798"
           transform="translate(461.3545,402.1719)"><path
             d="M 0,0 32.146,-9.588 -0.483,-118.696"
             style="fill:none;stroke:#000000;stroke-width:15;stroke-linecap:round;stroke-linejoin:round;stroke-miterlimit:10;stroke-dasharray:none;stroke-opacity:1"
             id="path7800" /></g><g
           id="g7802"
           transform="translate(374.0615,313.9443)"><path
             d="m 0,0 38.024,127.15 c 1.391,4.681 6.389,7.348 11.075,5.958 l 38.876,-11.603 c 4.685,-1.39 7.382,-6.383 5.963,-11.064 l -90.587,-302.955 -55.914,16.681 42.652,142.612"
             style="fill:none;stroke:#000000;stroke-width:15;stroke-linecap:round;stroke-linejoin:round;stroke-miterlimit:10;stroke-dasharray:none;stroke-opacity:1"
             id="path7804" /></g><g
           id="g7806"
           transform="translate(331.5225,66.168)"><path
             d="M 0,0 22.093,26.609 45.89,55.263 17.918,63.604 -10.024,71.943 -5.878,34.95 -1.988,0.596 C -1.59,-1.646 -1.619,-1.76 0,0 Z"
             style="fill:none;stroke:#000000;stroke-width:15;stroke-linecap:round;stroke-linejoin:round;stroke-miterlimit:10;stroke-dasharray:none;stroke-opacity:1"
             id="path7808" /></g><g
           id="g7810"
           transform="translate(423.1602,447.0527)"><path
             d="m 0,0 38.876,-11.604 9.939,33.221 C 51.995,32.313 45.861,43.66 35.184,46.837 24.479,50.043 13.12,43.915 9.939,33.22 Z"
             style="fill:none;stroke:#000000;stroke-width:15;stroke-linecap:round;stroke-linejoin:round;stroke-miterlimit:10;stroke-dasharray:none;stroke-opacity:1"
             id="path7812" /></g><g
           id="g7814"
           transform="translate(113.4316,309.5469)"><path
             d="M 0,0 H 203.637"
             style="fill:none;stroke:#000000;stroke-width:15;stroke-linecap:round;stroke-linejoin:round;stroke-miterlimit:10;stroke-dasharray:none;stroke-opacity:1"
             id="path7816" /></g><g
           id="g7818"
           transform="translate(113.4316,251.248)"><path
             d="M 0,0 H 191.227"
             style="fill:none;stroke:#000000;stroke-width:15;stroke-linecap:round;stroke-linejoin:round;stroke-miterlimit:10;stroke-dasharray:none;stroke-opacity:1"
             id="path7820" /></g><g
           id="g7822"
           transform="translate(113.4316,192.9492)"><path
             d="M 0,0 H 176.432"
             style="fill:none;stroke:#000000;stroke-width:15;stroke-linecap:round;stroke-linejoin:round;stroke-miterlimit:10;stroke-dasharray:none;stroke-opacity:1"
             id="path7824" /></g><g
           id="g7826"
           transform="translate(113.4316,134.6504)"><path
             d="M 0,0 H 120.83"
             style="fill:none;stroke:#000000;stroke-width:15;stroke-linecap:round;stroke-linejoin:round;stroke-miterlimit:10;stroke-dasharray:none;stroke-opacity:1"
             id="path7828" /></g><g
           id="g7830"
           transform="translate(293.2144,407.6475)"><path
             d="m 0,0 h -165.044 c -2.811,0 -5.112,-2.298 -5.112,-5.106 v -30.242 c 0,-2.808 2.301,-5.106 5.112,-5.106 H 0 c 2.812,0 5.112,2.298 5.112,5.106 V -5.106 C 5.112,-2.298 2.812,0 0,0"
             style="fill:#97da7b;fill-opacity:1;fill-rule:evenodd;stroke:none"
             id="path7832" /></g><g
           id="g7834"
           transform="translate(293.2144,407.6475)"><path
             d="m 0,0 h -46.855 c 2.811,0 5.111,-2.298 5.111,-5.106 v -30.242 c 0,-2.808 -2.3,-5.106 -5.111,-5.106 H 0 c 2.812,0 5.112,2.298 5.112,5.106 V -5.106 C 5.112,-2.298 2.812,0 0,0"
             style="fill:#68ca44;fill-opacity:1;fill-rule:evenodd;stroke:none"
             id="path7836" /></g><g
           id="g7838"
           transform="translate(128.1699,407.6475)"><path
             d="m 0,0 h 165.044 c 2.812,0 5.112,-2.298 5.112,-5.106 v -30.242 c 0,-2.808 -2.3,-5.106 -5.112,-5.106 H 0 c -2.811,0 -5.111,2.298 -5.111,5.106 V -5.106 C -5.111,-2.298 -2.811,0 0,0 Z"
             style="fill:none;stroke:#000000;stroke-width:15;stroke-linecap:round;stroke-linejoin:round;stroke-miterlimit:10;stroke-dasharray:none;stroke-opacity:1"
             id="path7840" /></g></g></g></g></svg>
