<svg width="683" height="683" viewBox="0 0 683 683" fill="none" xmlns="http://www.w3.org/2000/svg">
<g clip-path="url(#clip0_168_161)">
<path fill-rule="evenodd" clip-rule="evenodd" d="M341.335 0C529.069 0 682.67 153.601 682.67 341.335C682.67 529.069 529.069 682.67 341.335 682.67C153.601 682.67 0 529.069 0 341.335C0 153.601 153.601 0 341.335 0Z" fill="#ACAF48"/>
<path fill-rule="evenodd" clip-rule="evenodd" d="M209.378 116.499H377.635L456.24 195.105V471.134C456.229 475.162 454.624 479.022 451.776 481.87C448.927 484.719 445.068 486.323 441.04 486.334H209.378C205.353 486.323 201.497 484.717 198.653 481.868C195.809 479.019 194.21 475.16 194.205 471.134V131.673C194.212 127.651 195.813 123.795 198.657 120.951C201.501 118.107 205.356 116.506 209.378 116.499Z" fill="#EAF6FF"/>
<path fill-rule="evenodd" clip-rule="evenodd" d="M377.635 116.499V179.904C377.639 183.929 379.239 187.788 382.082 190.637C384.926 193.486 388.783 195.092 392.808 195.104H456.239L377.635 116.499Z" fill="#D3DDE6"/>
<path fill-rule="evenodd" clip-rule="evenodd" d="M392.135 412.669H542.646V497.28C542.646 532.052 392.137 536.613 392.137 497.28L392.135 412.669Z" fill="#59616E"/>
<path fill-rule="evenodd" clip-rule="evenodd" d="M542.646 444.272L467.393 470.758L392.138 444.272V412.662H542.646V444.272Z" fill="#505763"/>
<path fill-rule="evenodd" clip-rule="evenodd" d="M467.393 373.119L585.3 414.593L467.393 456.094L349.484 414.593L467.393 373.119Z" fill="#4D525D"/>
<path fill-rule="evenodd" clip-rule="evenodd" d="M182.033 553.948C195.426 553.943 208.516 549.967 219.649 542.522C230.782 535.078 239.458 524.499 244.58 512.125C249.701 499.75 251.038 486.134 248.422 473C245.806 459.865 239.354 447.801 229.883 438.333C220.411 428.865 208.344 422.417 195.208 419.807C182.073 417.196 168.458 418.538 156.085 423.665C143.712 428.791 133.137 437.471 125.697 448.607C118.257 459.743 114.286 472.835 114.286 486.228C114.319 504.183 121.467 521.393 134.166 534.087C146.865 546.781 164.078 553.923 182.033 553.948Z" fill="#FA4655"/>
<path fill-rule="evenodd" clip-rule="evenodd" d="M208.95 424.083V131.673C208.958 127.646 210.562 123.787 213.412 120.942C216.262 118.097 220.124 116.499 224.151 116.499H209.378C205.356 116.506 201.501 118.107 198.657 120.951C195.813 123.795 194.212 127.651 194.205 131.673V419.602C199.276 420.523 204.224 422.026 208.95 424.079V424.083Z" fill="#D3DDE6"/>
<path fill-rule="evenodd" clip-rule="evenodd" d="M126.215 486.228C126.216 469.298 132.558 452.983 143.992 440.498C155.425 428.012 171.121 420.262 187.985 418.775C186.028 418.587 184.017 418.509 182.033 418.509C164.072 418.509 146.847 425.644 134.147 438.344C121.447 451.044 114.313 468.269 114.312 486.229C114.313 504.19 121.447 521.415 134.147 534.115C146.847 546.815 164.072 553.949 182.033 553.949C184.017 553.949 186.033 553.869 187.985 553.708C171.118 552.215 155.422 544.46 143.989 531.97C132.556 519.48 126.215 503.162 126.215 486.229V486.228Z" fill="#E13F4D"/>
<path fill-rule="evenodd" clip-rule="evenodd" d="M411.146 486.336V436.309L392.135 429.602V497.269C392.135 507.349 402.001 514.534 416.694 519.092C414.991 517.609 413.618 515.786 412.662 513.741C411.706 511.696 411.189 509.473 411.143 507.216L411.146 486.336Z" fill="#505763"/>
<path fill-rule="evenodd" clip-rule="evenodd" d="M425.838 412.662L456.24 401.966L502.808 385.585L467.393 373.119L456.24 377.032L349.484 414.593L384.901 427.059L392.138 424.513L425.838 412.662Z" fill="#454A54"/>
<path d="M587.487 408.343L469.584 366.876C468.162 366.375 466.612 366.375 465.19 366.876L462.857 367.696V195.112C462.857 193.355 462.159 191.671 460.917 190.429L382.317 111.826C381.074 110.585 379.39 109.887 377.634 109.887H209.385C203.603 109.89 198.058 112.186 193.967 116.273C189.875 120.359 187.572 125.901 187.562 131.683V412.109C185.737 411.975 183.9 411.882 182.04 411.882C167.623 411.879 153.516 416.069 141.437 423.94C129.359 431.812 119.83 443.025 114.011 456.216C108.191 469.406 106.333 484.004 108.662 498.232C110.991 512.459 117.407 525.703 127.128 536.349C136.849 546.996 149.456 554.586 163.414 558.195C177.372 561.805 192.078 561.278 205.742 556.678C219.406 552.079 231.437 543.606 240.371 532.291C249.306 520.976 254.757 507.307 256.061 492.949H385.514V497.265C385.514 505.57 390.15 517.052 412.229 524.587C425.67 529.175 444.03 531.7 463.926 531.7C484.448 531.7 504.819 528.967 519.816 524.201C544.152 516.468 549.26 505.286 549.26 497.268V434.291L587.488 420.835C588.782 420.38 589.902 419.535 590.694 418.416C591.486 417.297 591.912 415.96 591.912 414.589C591.912 413.218 591.486 411.881 590.694 410.762C589.902 409.644 588.782 408.798 587.488 408.343H587.487ZM384.255 132.495L440.248 188.496H392.802C390.531 188.49 388.355 187.583 386.752 185.975C385.149 184.366 384.249 182.188 384.25 179.917L384.255 132.495ZM182.04 547.317C169.956 547.317 158.143 543.734 148.096 537.021C138.049 530.307 130.218 520.765 125.594 509.601C120.97 498.437 119.76 486.153 122.117 474.301C124.475 462.45 130.294 451.563 138.839 443.019C147.383 434.475 158.27 428.656 170.121 426.298C181.973 423.941 194.257 425.151 205.421 429.776C216.585 434.4 226.127 442.231 232.84 452.279C239.553 462.326 243.136 474.139 243.136 486.222C243.114 502.419 236.67 517.947 225.217 529.399C213.764 540.852 198.237 547.296 182.04 547.317ZM256.077 479.708C254.712 464.441 248.672 449.968 238.78 438.26C228.887 426.552 215.625 418.181 200.801 414.286V131.683C200.807 129.412 201.714 127.237 203.322 125.633C204.93 124.03 207.109 123.13 209.38 123.131H371.011V179.91C371.014 185.692 373.31 191.236 377.395 195.327C381.48 199.419 387.021 201.723 392.802 201.734H449.602V372.351L347.278 408.343C345.985 408.798 344.864 409.644 344.072 410.762C343.28 411.881 342.854 413.218 342.854 414.589C342.854 415.96 343.28 417.297 344.072 418.416C344.864 419.535 345.985 420.38 347.278 420.835L385.505 434.291V479.708H256.077ZM536.016 497.266C536.016 507.289 506.416 518.459 463.926 518.459C445.448 518.459 428.606 516.184 416.506 512.058C409.878 509.792 398.758 504.868 398.758 497.27V438.953L465.189 462.334C466.613 462.837 468.165 462.837 469.589 462.334L505.749 449.602V473.35C505.774 475.09 506.482 476.751 507.722 477.972C508.961 479.194 510.631 479.879 512.371 479.879C514.111 479.879 515.782 479.194 517.021 477.972C518.26 476.751 518.969 475.09 518.993 473.35V444.945L536.016 438.953V497.266ZM518.993 430.905V426.654C518.994 425.196 518.514 423.778 517.627 422.621C516.739 421.464 515.495 420.632 514.087 420.254L469.102 408.19C467.415 407.763 465.628 408.017 464.126 408.897C462.625 409.777 461.53 411.213 461.08 412.894C460.629 414.575 460.858 416.366 461.717 417.88C462.576 419.393 463.997 420.508 465.672 420.982L505.749 431.729V435.562L467.388 449.069L369.435 414.591L467.388 380.135L565.336 414.591L518.993 430.905ZM422.698 270.067C422.698 270.936 422.527 271.797 422.195 272.601C421.862 273.404 421.374 274.135 420.759 274.75C420.144 275.365 419.414 275.852 418.611 276.185C417.808 276.518 416.946 276.689 416.077 276.689H300.426C298.686 276.665 297.025 275.956 295.803 274.717C294.582 273.478 293.897 271.807 293.897 270.067C293.897 268.327 294.582 266.657 295.803 265.418C297.025 264.179 298.686 263.47 300.426 263.445H416.077C417.833 263.445 419.517 264.143 420.759 265.385C422.001 266.626 422.698 268.311 422.698 270.067ZM300.431 233.258H416.082C417.822 233.283 419.482 233.992 420.704 235.231C421.926 236.47 422.611 238.14 422.611 239.881C422.611 241.621 421.926 243.291 420.704 244.53C419.482 245.769 417.822 246.478 416.082 246.503H300.426C298.686 246.478 297.025 245.769 295.803 244.53C294.582 243.291 293.897 241.621 293.897 239.881C293.897 238.14 294.582 236.47 295.803 235.231C297.025 233.992 298.686 233.283 300.426 233.258H300.431ZM273.828 234.984C275.07 236.226 275.767 237.91 275.767 239.666C275.767 241.422 275.07 243.106 273.828 244.348L243.213 274.964C241.971 276.206 240.287 276.903 238.531 276.903C236.774 276.903 235.09 276.206 233.848 274.964L222.107 263.221C220.865 261.98 220.167 260.295 220.167 258.539C220.167 256.783 220.864 255.098 222.106 253.857C223.348 252.615 225.032 251.917 226.788 251.917C228.544 251.917 230.229 252.614 231.471 253.856L238.531 260.923L264.463 234.989C265.704 233.748 267.387 233.05 269.142 233.049C270.897 233.048 272.58 233.744 273.823 234.984H273.828ZM422.703 309.18C422.703 310.936 422.006 312.62 420.764 313.862C419.522 315.104 417.838 315.802 416.082 315.802H300.426C298.686 315.777 297.025 315.068 295.803 313.829C294.582 312.59 293.897 310.92 293.897 309.18C293.897 307.439 294.582 305.769 295.803 304.53C297.025 303.291 298.686 302.582 300.426 302.557H416.077C416.946 302.557 417.808 302.729 418.611 303.062C419.414 303.394 420.144 303.882 420.759 304.497C421.374 305.112 421.862 305.842 422.195 306.646C422.527 307.449 422.698 308.311 422.698 309.18H422.703ZM422.703 339.366C422.704 340.235 422.533 341.096 422.2 341.9C421.867 342.703 421.379 343.434 420.765 344.049C420.15 344.663 419.42 345.151 418.616 345.484C417.813 345.817 416.952 345.988 416.082 345.988H300.426C298.686 345.964 297.025 345.255 295.803 344.016C294.582 342.777 293.897 341.106 293.897 339.366C293.897 337.626 294.582 335.956 295.803 334.717C297.025 333.478 298.686 332.769 300.426 332.744H416.077C416.946 332.744 417.807 332.916 418.611 333.248C419.414 333.581 420.144 334.069 420.759 334.684C421.374 335.298 421.861 336.028 422.194 336.832C422.527 337.635 422.698 338.496 422.698 339.366H422.703ZM273.823 304.283C275.064 305.525 275.762 307.209 275.762 308.966C275.762 310.722 275.064 312.406 273.823 313.648L243.208 344.268C241.966 345.51 240.281 346.207 238.525 346.207C236.769 346.207 235.085 345.51 233.843 344.268L222.101 332.526C221.486 331.911 220.998 331.181 220.666 330.377C220.333 329.574 220.161 328.713 220.161 327.843C220.161 326.974 220.333 326.113 220.665 325.309C220.998 324.506 221.486 323.776 222.101 323.161C222.715 322.546 223.445 322.058 224.249 321.725C225.052 321.392 225.913 321.221 226.783 321.221C227.652 321.221 228.513 321.392 229.317 321.725C230.12 322.058 230.85 322.545 231.465 323.16L238.525 330.227L264.457 304.293C265.698 303.051 267.382 302.351 269.138 302.349C270.894 302.347 272.579 303.043 273.823 304.283ZM386.963 378.479C386.963 380.236 386.266 381.92 385.024 383.162C383.782 384.404 382.097 385.102 380.341 385.102H300.426C298.686 385.077 297.025 384.369 295.803 383.129C294.582 381.89 293.897 380.22 293.897 378.48C293.897 376.74 294.582 375.069 295.803 373.83C297.025 372.591 298.686 371.882 300.426 371.858H380.341C381.21 371.858 382.071 372.029 382.875 372.361C383.678 372.694 384.409 373.182 385.024 373.797C385.638 374.412 386.126 375.142 386.459 375.945C386.792 376.748 386.963 377.61 386.963 378.479ZM333.347 408.691C333.347 410.448 332.649 412.132 331.407 413.374C330.165 414.616 328.481 415.314 326.724 415.314H300.426C298.686 415.289 297.025 414.581 295.803 413.342C294.582 412.102 293.897 410.432 293.897 408.692C293.897 406.952 294.582 405.282 295.803 404.042C297.025 402.803 298.686 402.095 300.426 402.07H326.724C327.594 402.07 328.455 402.241 329.259 402.574C330.062 402.906 330.792 403.394 331.407 404.009C332.022 404.624 332.51 405.354 332.843 406.157C333.176 406.961 333.347 407.822 333.347 408.691ZM273.823 373.582C275.064 374.824 275.762 376.508 275.762 378.264C275.762 380.021 275.064 381.705 273.823 382.947L243.208 413.562C242.593 414.177 241.863 414.665 241.06 414.998C240.257 415.331 239.396 415.502 238.526 415.502C237.656 415.502 236.795 415.331 235.992 414.998C235.189 414.665 234.459 414.177 233.844 413.562L222.101 401.821C220.859 400.579 220.161 398.895 220.161 397.138C220.161 395.382 220.859 393.698 222.101 392.456C223.342 391.214 225.027 390.516 226.783 390.516C228.539 390.516 230.223 391.213 231.465 392.455L238.525 399.522L264.457 373.588C265.699 372.346 267.382 371.647 269.139 371.646C270.895 371.645 272.58 372.341 273.823 373.582ZM220.161 159.295C220.161 157.539 220.859 155.854 222.101 154.612C223.343 153.37 225.027 152.673 226.784 152.673H342.434C344.174 152.697 345.834 153.406 347.056 154.645C348.278 155.884 348.962 157.555 348.962 159.295C348.962 161.035 348.278 162.705 347.056 163.944C345.834 165.184 344.174 165.892 342.434 165.917H226.784C225.914 165.917 225.053 165.746 224.25 165.413C223.446 165.08 222.716 164.593 222.101 163.978C221.486 163.363 220.998 162.633 220.665 161.83C220.332 161.026 220.161 160.165 220.161 159.295ZM220.161 189.508C220.161 188.638 220.332 187.777 220.665 186.973C220.998 186.17 221.486 185.44 222.101 184.825C222.716 184.21 223.446 183.723 224.25 183.39C225.053 183.057 225.914 182.886 226.784 182.886H342.434C344.174 182.911 345.834 183.619 347.056 184.859C348.278 186.098 348.962 187.768 348.962 189.508C348.962 191.248 348.278 192.919 347.056 194.158C345.834 195.397 344.174 196.106 342.434 196.13H226.784C225.027 196.13 223.343 195.433 222.101 194.191C220.859 192.949 220.161 191.264 220.161 189.508ZM175.71 456.116C175.244 454.842 174.397 453.743 173.286 452.966C172.174 452.189 170.85 451.773 169.494 451.773C168.138 451.773 166.815 452.189 165.703 452.966C164.591 453.743 163.745 454.842 163.278 456.116L140.973 516.944C140.673 517.76 140.538 518.628 140.574 519.496C140.61 520.365 140.816 521.218 141.182 522.007C141.548 522.796 142.065 523.505 142.705 524.094C143.344 524.683 144.094 525.141 144.91 525.44C145.727 525.739 146.594 525.875 147.463 525.839C148.331 525.803 149.185 525.596 149.974 525.231C150.763 524.865 151.472 524.348 152.061 523.708C152.65 523.068 153.107 522.319 153.406 521.503L159.688 504.37H179.301L185.582 521.503C185.882 522.319 186.339 523.068 186.928 523.708C187.517 524.348 188.226 524.865 189.015 525.231C189.804 525.596 190.657 525.803 191.526 525.839C192.395 525.875 193.262 525.739 194.078 525.44C194.895 525.141 195.644 524.683 196.284 524.094C196.924 523.505 197.441 522.796 197.807 522.007C198.172 521.218 198.379 520.365 198.415 519.496C198.451 518.628 198.315 517.76 198.016 516.944L175.71 456.116ZM164.545 491.126L169.494 477.629L174.444 491.126H164.545ZM223.487 464.669C223.487 466.425 222.789 468.11 221.547 469.352C220.305 470.594 218.62 471.292 216.864 471.292H212.064V476.116C212.076 476.993 211.914 477.864 211.587 478.679C211.26 479.493 210.774 480.234 210.158 480.859C209.542 481.484 208.807 481.98 207.998 482.319C207.188 482.658 206.319 482.832 205.442 482.832C204.564 482.832 203.695 482.658 202.886 482.319C202.076 481.98 201.342 481.484 200.726 480.859C200.11 480.234 199.624 479.493 199.297 478.679C198.969 477.864 198.807 476.993 198.82 476.116V471.292H194.001C193.124 471.304 192.252 471.142 191.438 470.815C190.624 470.488 189.882 470.002 189.257 469.386C188.633 468.77 188.136 468.035 187.798 467.226C187.459 466.416 187.284 465.547 187.284 464.67C187.284 463.792 187.459 462.923 187.798 462.113C188.136 461.304 188.633 460.57 189.257 459.954C189.882 459.337 190.624 458.852 191.438 458.524C192.252 458.197 193.124 458.035 194.001 458.048H198.826V453.248C198.851 451.508 199.56 449.847 200.799 448.625C202.038 447.404 203.708 446.719 205.448 446.719C207.189 446.719 208.859 447.404 210.098 448.625C211.337 449.847 212.046 451.508 212.07 453.248V458.048H216.87C218.626 458.049 220.308 458.747 221.549 459.989C222.79 461.23 223.487 462.914 223.487 464.669Z" fill="#282828"/>
</g>
<defs>
<clipPath id="clip0_168_161">
<rect width="682.67" height="682.67" fill="white"/>
</clipPath>
</defs>
</svg>
