<svg width="28" height="28" viewBox="0 0 28 28" fill="none" xmlns="http://www.w3.org/2000/svg">
<g id="warranty_17614412 1" clip-path="url(#clip0_799_411)">
<g id="Group">
<g id="Group_2">
<path id="Vector" fill-rule="evenodd" clip-rule="evenodd" d="M22.4397 3.98789C14.3206 -0.505348 9.00975 -0.505457 0.890625 3.98789V14.1437C0.890625 17.177 2.14521 19.6243 4.60834 21.3946L11.6652 26.4665L18.7217 21.3947C21.1849 19.6243 22.4397 17.1772 22.4397 14.1437V3.98789Z" fill="#72D561"/>
<path id="Vector_2" fill-rule="evenodd" clip-rule="evenodd" d="M22.4414 3.98786C18.0959 1.58303 14.5549 0.465824 10.9571 0.635191C14.0814 0.7823 17.2484 1.8994 21.022 3.98781V14.1437C21.022 17.1771 19.7672 19.6242 17.304 21.3946L10.957 25.9564L11.6667 26.4664L18.7232 21.3946C21.1864 19.6242 22.4412 17.1771 22.4412 14.1437V3.98786H22.4414Z" fill="#57CA5A"/>
<path id="Vector_3" fill-rule="evenodd" clip-rule="evenodd" d="M20.0861 5.22319C13.6061 1.99602 9.17529 1.99597 2.69531 5.22319V14.6076C2.69531 16.913 3.57381 18.627 5.44588 19.9725L11.3907 24.2451L17.3352 19.9725C19.2073 18.6269 20.0862 16.9132 20.0862 14.6076V5.22319H20.0861Z" fill="#3CBE52"/>
<path id="Vector_4" fill-rule="evenodd" clip-rule="evenodd" d="M12.1554 2.82398C9.16807 2.65915 6.23791 3.45885 2.69531 5.22312V14.6076C2.69531 16.913 3.57381 18.627 5.44587 19.9724L11.3907 24.2451L12.1554 23.6955L6.97538 19.9724C5.10331 18.6269 4.22481 16.913 4.22481 14.6076V5.22312C7.16219 3.76029 9.67847 2.96054 12.1554 2.82398Z" fill="#30AA44"/>
</g>
<g id="Group_3">
<path id="Vector_5" d="M6.51049 6.79834H16.8209C17.1695 6.79834 17.4525 7.08135 17.4525 7.42993V16.1746C17.4525 16.5231 17.1695 16.8061 16.8209 16.8061H6.51049C6.16191 16.8061 5.87891 16.5231 5.87891 16.1745V7.42993C5.87891 7.08135 6.16191 6.79834 6.51049 6.79834Z" fill="#FFDA2D"/>
<g id="Group_4">
<path id="Vector_6" fill-rule="evenodd" clip-rule="evenodd" d="M6.51049 16.806H16.8209C17.1683 16.806 17.4525 16.5219 17.4525 16.1745V7.42993C17.4525 7.08255 17.1683 6.79834 16.8209 6.79834H16.6106V15.3326C16.6106 15.68 16.3264 15.9642 15.979 15.9642H5.87891V16.1745C5.87891 16.5219 6.16312 16.806 6.51049 16.806Z" fill="#FFC700"/>
<path id="Vector_7" fill-rule="evenodd" clip-rule="evenodd" d="M9.62109 6.79834H13.7437V9.99811C13.7437 10.258 13.4423 10.4007 13.2413 10.2359L11.8773 9.11769C11.7628 9.02379 11.602 9.02379 11.4875 9.11769L10.1235 10.2359C9.92248 10.4007 9.62109 10.2581 9.62109 9.99811V6.79834Z" fill="#EFF4F7"/>
<path id="Vector_8" fill-rule="evenodd" clip-rule="evenodd" d="M12.8162 6.79834H13.7436V9.99811C13.7436 10.2581 13.4422 10.4007 13.2412 10.2358L12.8162 9.88742V6.79834ZM11.2186 9.33797L10.1235 10.2358C9.92248 10.4007 9.62109 10.258 9.62109 9.99811V9.88742L10.56 9.11769C10.6745 9.02379 10.8354 9.02379 10.9499 9.11769L11.2187 9.33803L11.2186 9.33797Z" fill="#DEE8EE"/>
</g>
</g>
<g id="Group_5">
<path id="Vector_9" fill-rule="evenodd" clip-rule="evenodd" d="M19.9523 22.2086L17.0381 27.2561C16.9722 27.3702 16.8035 27.3552 16.7587 27.2312L15.9742 25.0559L13.698 25.4641C13.5683 25.4874 13.4709 25.3487 13.5368 25.2346L16.8523 19.492L21.2175 20.7781L23.4059 18.8569L27.1246 25.298C27.1905 25.4121 27.0931 25.5507 26.9633 25.5275L24.6872 25.1193L23.9027 27.2946C23.8579 27.4186 23.676 27.4402 23.6233 27.3194L21.2987 22.0027L19.9524 22.2086L19.9523 22.2086Z" fill="#FFDA2D"/>
<path id="Vector_10" fill-rule="evenodd" clip-rule="evenodd" d="M19.6711 22.1837L16.7569 27.2312C16.691 27.3453 16.5222 27.3302 16.4775 27.2063L15.6929 25.031L13.4168 25.4392C13.2871 25.4625 13.1897 25.3238 13.2556 25.2097L13.8019 24.2633L15.6929 23.9242L16.4775 26.0995C16.5222 26.2235 16.691 26.2385 16.7569 26.1243L19.6711 21.0768L23.6214 26.2125C23.7017 26.3169 23.8561 26.3116 23.9008 26.1877L24.6853 24.0124L26.5763 24.3515L27.1227 25.2978C27.1886 25.412 27.0912 25.5506 26.9615 25.5274L24.6853 25.1192L23.9008 27.2945C23.8561 27.4185 23.6705 27.4416 23.6214 27.3193L21.5181 22.0739L19.6711 22.1837H19.6711Z" fill="#FFC700"/>
<path id="Vector_11" fill-rule="evenodd" clip-rule="evenodd" d="M25.5475 21.0896C26.4358 20.782 26.8427 19.5295 26.3049 18.7586C26.0786 18.4342 26.0785 18.0235 26.3049 17.6991C26.8428 16.9282 26.4359 15.6757 25.5476 15.3681C25.1738 15.2387 24.9323 14.9064 24.9248 14.511C24.9069 13.5711 23.8414 12.797 22.9419 13.0703C22.5636 13.1853 22.1729 13.0584 21.9343 12.7429C21.3674 11.9931 20.0504 11.9931 19.4834 12.7429C19.2448 13.0583 18.8542 13.1853 18.4758 13.0703C17.5764 12.7969 16.5109 13.571 16.4929 14.5109C16.4854 14.9063 16.2439 15.2387 15.8702 15.368C14.9819 15.6755 14.5749 16.928 15.1128 17.699C15.3391 18.0233 15.3391 18.4341 15.1128 18.7584C14.5749 19.5293 14.9818 20.7819 15.8701 21.0895C16.2438 21.2188 16.4853 21.5511 16.4929 21.9465C16.5108 22.8864 17.5763 23.6605 18.4757 23.3872C18.8541 23.2722 19.2448 23.3991 19.4833 23.7146C20.0503 24.4644 21.3673 24.4644 21.9343 23.7146C22.1729 23.3991 22.5635 23.2722 22.9419 23.3872C23.8413 23.6605 24.9068 22.8864 24.9247 21.9466C24.9323 21.5511 25.1737 21.2188 25.5475 21.0895V21.0896Z" fill="#FC685B"/>
<path id="Vector_12" fill-rule="evenodd" clip-rule="evenodd" d="M25.5443 21.0895C26.4326 20.782 26.8396 19.5295 26.3018 18.7585C26.0755 18.4342 26.0754 18.0234 26.3018 17.6991C26.7932 16.9948 26.4959 15.8887 25.7636 15.4683C26.0217 15.9696 26.0395 16.6063 25.7165 17.0692C25.4902 17.3935 25.4903 17.8043 25.7165 18.1286C26.2544 18.8996 25.8474 20.1521 24.9591 20.4596C24.5853 20.589 24.3439 20.9214 24.3364 21.3168C24.3184 22.2566 23.2529 23.0307 22.3535 22.7574C21.9751 22.6424 21.5844 22.7693 21.3459 23.0848C20.7789 23.8346 19.4619 23.8346 18.8949 23.0848C18.6565 22.7693 18.2657 22.6424 17.8873 22.7574C17.4698 22.8843 17.0167 22.7853 16.649 22.5491C16.9817 23.1832 17.7767 23.5987 18.4726 23.3873C18.851 23.2723 19.2417 23.3992 19.4802 23.7146C20.0472 24.4645 21.3642 24.4645 21.9312 23.7146C22.1697 23.3992 22.5604 23.2723 22.9388 23.3873C23.8382 23.6606 24.9036 22.8865 24.9216 21.9466C24.9292 21.5512 25.1706 21.2189 25.5443 21.0895ZM24.9525 14.7358C24.9336 14.664 24.9231 14.5887 24.9216 14.511C24.912 14.0074 24.6015 13.5514 24.1771 13.2786C24.2744 13.4641 24.3323 13.6684 24.3364 13.8811C24.3438 14.2742 24.5826 14.6048 24.9525 14.7358ZM15.0626 20.3595C15.2342 20.6929 15.5121 20.9666 15.867 21.0895L15.8736 21.0919C15.7968 20.7985 15.5819 20.5636 15.2817 20.4596C15.2049 20.4331 15.1318 20.3993 15.0626 20.3595Z" fill="#F35244"/>
<path id="Vector_13" fill-rule="evenodd" clip-rule="evenodd" d="M20.4979 21.6816C22.5149 21.6816 24.1599 20.0365 24.1599 18.0196C24.1599 16.0027 22.5149 14.3576 20.4979 14.3576C18.481 14.3576 16.8359 16.0027 16.8359 18.0196C16.8359 20.0365 18.481 21.6816 20.4979 21.6816Z" fill="#EFF4F7"/>
<path id="Vector_14" fill-rule="evenodd" clip-rule="evenodd" d="M20.7072 14.3576C21.6761 14.3576 22.5618 14.7135 23.2408 15.3017C22.675 14.9779 22.0196 14.7928 21.321 14.7928C19.183 14.7928 17.4497 16.526 17.4497 18.664C17.4497 19.8332 17.968 20.8813 18.7874 21.5911C17.6216 20.924 16.8359 19.6682 16.8359 18.2288C16.8359 16.0907 18.5691 14.3575 20.7072 14.3575L20.7072 14.3576Z" fill="#E2E3E3"/>
<g id="Group_6">
<path id="Vector_15" fill-rule="evenodd" clip-rule="evenodd" d="M20.4908 16.0021L21.0854 17.4166L22.6144 17.545L21.4529 18.5476L21.8032 20.0414L20.4908 19.2466L19.1783 20.0414L19.5287 18.5476L18.3672 17.545L19.8961 17.4166L20.4908 16.0021Z" fill="#FFC700"/>
<path id="Vector_16" fill-rule="evenodd" clip-rule="evenodd" d="M20.4908 16.0021L20.5685 16.1868L20.1641 17.1487L20.0031 17.1622L20.4908 16.0021ZM22.5757 17.5418L22.6144 17.545L21.728 18.3101L21.7208 18.2796L22.5757 17.5417L22.5757 17.5418ZM21.6857 19.54L20.7587 18.9787L19.4463 19.7735L19.7966 18.2797L18.8942 17.5007L18.3672 17.545L19.5287 18.5476L19.1783 20.0415L20.4908 19.2466L21.8032 20.0415L21.6856 19.5401L21.6857 19.54Z" fill="#FDB800"/>
</g>
</g>
</g>
<path id="Vector_17" fill-rule="evenodd" clip-rule="evenodd" d="M25.1532 24.6985C24.9433 24.6602 24.7367 24.78 24.6644 24.9807L24.0962 26.5563L22.4182 23.6501C22.4524 23.6535 22.4868 23.6589 22.5216 23.6693C23.0697 23.8361 23.7023 23.7136 24.2134 23.3422C24.6916 22.995 24.9951 22.4793 25.0416 21.9456L26.8016 24.9944L25.1532 24.6985ZM20.4399 23.6934C20.7993 23.6934 21.122 23.5501 21.3031 23.3106C21.6491 22.8534 22.2272 22.6653 22.776 22.832C23.0633 22.9196 23.4085 22.8458 23.6992 22.6341C23.9899 22.423 24.167 22.1178 24.1727 21.8176C24.1837 21.2439 24.5409 20.7518 25.0829 20.5646C25.3667 20.4662 25.6025 20.2038 25.7136 19.862C25.8246 19.5202 25.7883 19.1691 25.6164 18.9225C25.2882 18.4522 25.2882 17.8441 25.6163 17.3742C25.7882 17.1276 25.8245 16.7766 25.7136 16.4347C25.6026 16.093 25.3668 15.8305 25.0829 15.732C24.5409 15.5444 24.1835 15.0527 24.1726 14.479C24.1669 14.1789 23.9899 13.8737 23.6992 13.662C23.4084 13.4509 23.0634 13.3771 22.7759 13.4646C22.6508 13.5023 22.5242 13.521 22.3993 13.5231C22.39 13.5236 22.381 13.5248 22.3717 13.5248C22.3692 13.5248 22.3667 13.5242 22.3642 13.5242C21.9534 13.5203 21.5628 13.3295 21.3031 12.9861C21.122 12.746 20.7993 12.6033 20.44 12.6033C20.0807 12.6033 19.7579 12.7461 19.5768 12.9861C19.2307 13.4432 18.6527 13.6309 18.1039 13.4646C17.8165 13.3771 17.4714 13.4509 17.1806 13.662C16.89 13.8737 16.713 14.1788 16.7073 14.479C16.6962 15.0527 16.3389 15.5444 15.7971 15.732C15.5131 15.8305 15.2774 16.0929 15.1663 16.4347C15.0553 16.7766 15.0916 17.1276 15.2634 17.3737C15.5916 17.8441 15.5916 18.4522 15.2634 18.9225C15.0916 19.1692 15.0552 19.5202 15.1663 19.8621C15.2772 20.2038 15.513 20.4663 15.7969 20.5647C15.8362 20.5784 15.8742 20.5937 15.9117 20.6106C15.9239 20.6156 15.9358 20.6216 15.9475 20.6277C16.404 20.848 16.6973 21.2992 16.7073 21.8171C16.7129 22.1178 16.8899 22.423 17.1805 22.6341C17.4713 22.8452 17.8164 22.9197 18.1039 22.8321C18.2368 22.7917 18.3714 22.7719 18.5041 22.7719C18.919 22.7719 19.3146 22.9639 19.5766 23.3107C19.7579 23.5501 20.0806 23.6934 20.4399 23.6934V23.6934ZM16.7838 26.5563L16.2154 24.9807C16.1431 24.78 15.9367 24.6612 15.7266 24.6985L14.0781 24.9944L15.8384 21.9456C15.8847 22.4793 16.1882 22.9944 16.6662 23.3422C17.1775 23.7136 17.8101 23.8361 18.3583 23.6693C18.3931 23.6589 18.4276 23.6535 18.4617 23.6501L16.7837 26.5563H16.7838ZM16.6633 6.18626H6.2008C5.65321 6.18626 5.20767 6.63186 5.20767 7.17939V16.4249C5.20767 16.9723 5.65321 17.418 6.2008 17.418H14.3212C14.3741 17.5809 14.4488 17.7352 14.5458 17.8746C14.6654 18.0457 14.6654 18.2503 14.5459 18.422C14.2181 18.8918 14.1389 19.5311 14.3341 20.1321C14.4535 20.4996 14.6647 20.8178 14.9344 21.053L11.432 23.5703L5.80989 19.53C3.84163 18.1152 2.8437 16.1688 2.8437 13.7446V5.66345C9.31339 2.07961 13.5505 2.07961 20.0204 5.66345V11.7699C19.556 11.8622 19.1461 12.1045 18.8789 12.4578C18.7528 12.6246 18.5583 12.688 18.3583 12.6274C18.1338 12.5589 17.8951 12.5398 17.6564 12.5661V7.17939C17.6564 6.63186 17.2109 6.18626 16.6633 6.18626ZM9.77993 7.06121V9.76879L11.1809 8.78715C11.3316 8.68165 11.5322 8.68165 11.6829 8.78715L13.084 9.76879V7.06121H9.77993ZM14.3342 16.1645C14.2936 16.2892 14.2655 16.4161 14.2483 16.5429H6.2008C6.1367 16.5429 6.08273 16.4888 6.08273 16.4249V7.17939C6.08273 7.1154 6.1367 7.06121 6.2008 7.06121H8.90504V10.6093C8.90504 10.7724 8.99582 10.9216 9.14047 10.9971C9.28517 11.0725 9.45973 11.061 9.59345 10.9675L11.432 9.6797L13.2705 10.9675C13.3454 11.02 13.4333 11.0468 13.5215 11.0468C13.5906 11.0468 13.66 11.0304 13.7234 10.9971C13.8683 10.9216 13.959 10.7724 13.959 10.6093V7.06121H16.6633C16.7273 7.06121 16.7814 7.1154 16.7814 7.17939V12.8767C16.7425 12.9013 16.7041 12.927 16.6664 12.9544C16.1551 13.3257 15.8434 13.8895 15.8325 14.4621C15.8284 14.6716 15.7081 14.8367 15.5109 14.9051C14.9693 15.0926 14.5295 15.5635 14.3342 16.1645ZM11.432 25.9274L4.69279 21.0836C2.23098 19.3145 0.929633 16.7765 0.929633 13.7446V4.55215C8.84849 -0.091863 14.0153 -0.091863 21.9343 4.55215V12.3752C21.6753 12.075 21.308 11.8661 20.8953 11.777V5.40691C20.8953 5.24881 20.81 5.10285 20.6721 5.02514C17.0702 3.00072 14.2204 2.09766 11.432 2.09766C11.4318 2.09766 11.4321 2.09766 11.4319 2.09766C8.64369 2.09766 5.79365 3.00072 2.19182 5.02514C2.05395 5.10285 1.96875 5.24832 1.96875 5.40691V13.7446C1.96875 15.0888 2.25225 16.3237 2.81148 17.4142C3.37066 18.5052 4.20771 19.4556 5.29927 20.2405L11.1766 24.4644C11.253 24.5192 11.3425 24.5466 11.432 24.5466C11.5216 24.5466 11.6111 24.5192 11.6874 24.4644L14.5697 22.393L13.3069 24.5799L11.432 25.9274V25.9274ZM27.8659 25.0874L25.6563 21.2603C26.064 21.0262 26.3863 20.6227 26.5457 20.1321C26.741 19.5311 26.6618 18.8918 26.334 18.422C26.2146 18.2503 26.2143 18.0458 26.334 17.8746C26.6618 17.4047 26.741 16.7655 26.5457 16.1645C26.3505 15.5635 25.9107 15.0926 25.3693 14.9051C25.1718 14.8367 25.0515 14.6716 25.0475 14.4627C25.0366 13.8895 24.7249 13.3257 24.2137 12.9544C23.7898 12.6465 23.2827 12.5103 22.8093 12.5677V4.30277C22.8093 4.148 22.7279 4.00532 22.5951 3.92603C18.2285 1.33554 14.7856 0.180481 11.432 0.180481C11.4317 0.180481 11.4321 0.180481 11.4319 0.180481C8.07855 0.180481 4.63526 1.33603 0.269008 3.92603C0.136117 4.00532 0.0546875 4.148 0.0546875 4.30277V13.7446C0.0546875 17.0701 1.48198 19.8538 4.18217 21.7947L11.1766 26.8214C11.253 26.8762 11.3425 26.9041 11.432 26.9041C11.5215 26.9041 11.611 26.8762 11.6873 26.8214L13.1082 25.8005C13.2433 25.9367 13.4351 25.9984 13.6297 25.9635L15.5176 25.6249L16.1684 27.4291C16.2472 27.6479 16.44 27.7966 16.6715 27.8174C16.6896 27.8191 16.7077 27.8195 16.7257 27.8195C16.9363 27.8195 17.128 27.7096 17.2352 27.5242L19.1842 24.1484C19.5232 24.4157 19.9681 24.5684 20.4399 24.5684C20.9117 24.5684 21.3568 24.4158 21.6957 24.1484L23.6446 27.5242C23.7518 27.7096 23.9436 27.8195 24.1542 27.8195C24.1721 27.8195 24.1903 27.8191 24.2084 27.8174C24.4398 27.7966 24.6326 27.6479 24.7114 27.4291L25.3622 25.6249L27.2501 25.9635C27.4789 26.0045 27.7041 25.9121 27.8377 25.7217C27.9713 25.532 27.9821 25.2886 27.8658 25.0874L27.8659 25.0874ZM21.0555 18.0786C20.9321 18.1852 20.8782 18.3514 20.9154 18.5095L21.006 18.8962L20.6667 18.6905C20.5971 18.6484 20.5185 18.6271 20.4401 18.6271C20.3616 18.6271 20.283 18.6484 20.2134 18.6905L19.8741 18.8962L19.9647 18.5095C20.0019 18.3514 19.9479 18.1852 19.8246 18.0786L19.5244 17.8194L19.9196 17.786C20.082 17.7728 20.2233 17.67 20.2864 17.5196L20.4402 17.1543L20.5938 17.5196C20.6569 17.67 20.7982 17.7728 20.9606 17.786L21.3558 17.8194L21.0556 18.0786H21.0555ZM22.8454 17.3354C22.8998 17.5027 22.8485 17.6866 22.7153 17.8019L21.8277 18.568L22.0954 19.7093C22.1356 19.8811 22.0691 20.0599 21.9267 20.1632C21.8503 20.2185 21.7599 20.247 21.6694 20.247C21.5912 20.247 21.5127 20.2256 21.4429 20.1835L20.4401 19.576L19.4372 20.1835C19.2866 20.2749 19.0958 20.2666 18.9534 20.1632C18.8109 20.06 18.7444 19.8811 18.7846 19.7093L19.0523 18.568L18.1648 17.8019C18.0315 17.6865 17.9802 17.5027 18.0346 17.3354C18.089 17.1681 18.2385 17.0494 18.414 17.0347L19.5823 16.9367L20.0367 15.8556C20.1049 15.6931 20.2639 15.5876 20.4401 15.5876C20.6162 15.5876 20.7751 15.6931 20.8434 15.8556L21.2977 16.9367L22.466 17.0347C22.6416 17.0494 22.7911 17.1681 22.8454 17.3354ZM20.4399 21.221C18.7456 21.221 17.3672 19.8422 17.3672 18.1481C17.3672 16.4539 18.7456 15.0757 20.4399 15.0757C22.1342 15.0757 23.5127 16.4537 23.5127 18.1481C23.5127 19.8424 22.1343 21.221 20.4399 21.221ZM24.3877 18.1481C24.3877 15.9715 22.6168 14.2007 20.4399 14.2007C18.263 14.2007 16.4922 15.9714 16.4922 18.1481C16.4922 20.3247 18.2631 22.0959 20.4399 22.0959C22.6167 22.0959 24.3877 20.3252 24.3877 18.1481Z" fill="black"/>
</g>
<defs>
<clipPath id="clip0_799_411">
<rect width="28" height="28" fill="white"/>
</clipPath>
</defs>
</svg>
