<svg width="683" height="683" viewBox="0 0 683 683" fill="none" xmlns="http://www.w3.org/2000/svg">
<g clip-path="url(#clip0_166_95)">
<path d="M213.334 480.002C213.334 521.282 246.721 554.669 288.001 554.669H394.668C435.948 554.669 469.335 521.282 469.335 480.002H213.334Z" fill="#F7A539"/>
<path d="M441.922 329.282C437.548 304.961 424.748 283.948 406.828 269.015C388.908 254.188 366.081 245.334 341.335 245.334C291.948 245.334 249.601 280.641 240.747 329.282L213.334 480.002H469.335L441.922 329.282Z" fill="#FFCC3E"/>
<path d="M149.334 480.002V618.67H106.667C53.6534 618.67 10.6665 575.683 10.6665 522.669V149.334C10.6665 202.348 53.6534 245.334 106.667 245.334H149.334V480.002Z" fill="#60E8B3"/>
<path d="M341.335 245.334C376.681 245.334 405.335 216.68 405.335 181.334C405.335 145.988 376.681 117.334 341.335 117.334C305.988 117.334 277.334 145.988 277.334 181.334C277.334 216.68 305.988 245.334 341.335 245.334Z" fill="#F7A539"/>
<path d="M576.003 53.3335C629.016 53.3335 672.003 96.3204 672.003 149.334C672.003 202.348 629.016 245.334 576.003 245.334H533.336V480.002H469.335L441.922 329.282C437.549 304.961 424.749 283.948 406.828 269.015C388.908 254.188 366.082 245.334 341.335 245.334C376.642 245.334 405.335 216.641 405.335 181.334C405.335 146.027 376.642 117.334 341.335 117.334C306.028 117.334 277.334 146.027 277.334 181.334C277.334 216.641 306.028 245.334 341.335 245.334C291.948 245.334 249.601 280.641 240.748 329.282L213.334 480.002H149.334V245.334H106.667C53.6534 245.334 10.6665 202.348 10.6665 149.334C10.6665 96.3204 53.6534 53.3335 106.667 53.3335H576.003Z" fill="#24BC77"/>
<path d="M672.003 149.334V522.669C672.003 575.683 629.016 618.67 576.003 618.67H533.336V245.334H576.003C629.016 245.334 672.003 202.348 672.003 149.334Z" fill="#60E8B3"/>
<path d="M576.003 42.667H106.667C47.8509 42.667 0 90.5179 0 149.334V522.669C0 581.486 47.8509 629.337 106.667 629.337H149.334C155.233 629.337 160.001 624.558 160.001 618.67V490.669H203.404C208.684 532.696 244.567 565.336 288.001 565.336H394.669C438.103 565.336 473.986 532.696 479.266 490.669H522.669V618.67C522.669 624.558 527.437 629.337 533.336 629.337H576.003C634.819 629.337 682.67 581.486 682.67 522.669V149.334C682.67 90.5179 634.819 42.667 576.003 42.667ZM138.667 608.003H106.667C59.6163 608.003 21.3334 569.72 21.3334 522.669V213.27C40.8109 239.201 71.8084 256.001 106.667 256.001H138.667V608.003ZM394.669 544.003H288.001C253.025 544.003 224.502 515.789 224.012 480.93L251.244 331.191C259.18 287.628 297.068 256.001 341.335 256.001C362.636 256.001 383.479 263.543 400.002 277.217C416.471 290.935 427.629 310.103 431.426 331.202L458.658 480.941C458.168 515.8 429.645 544.003 394.669 544.003ZM288.001 181.334C288.001 151.926 311.927 128.001 341.335 128.001C370.743 128.001 394.669 151.926 394.669 181.334C394.669 210.742 370.743 234.668 341.335 234.668C311.927 234.668 288.001 210.742 288.001 181.334ZM661.337 522.669C661.337 569.72 623.054 608.003 576.003 608.003H544.003V405.335C544.003 399.447 539.235 394.669 533.336 394.669C527.437 394.669 522.669 399.447 522.669 405.335V469.336H478.232L452.418 327.394C447.746 301.388 433.975 277.751 413.623 260.801C404.493 253.249 394.263 247.308 383.426 242.956C403.074 229.495 416.002 206.902 416.002 181.345C416.002 140.171 382.498 106.678 341.335 106.678C300.172 106.678 266.668 140.171 266.668 181.345C266.668 206.881 279.575 229.452 299.191 242.924C264.129 257.057 237.377 288.268 230.262 327.383L204.438 469.346H160.001V245.335C160.001 239.447 155.233 234.668 149.334 234.668H106.667C59.6163 234.668 21.3334 196.385 21.3334 149.334C21.3334 102.283 59.6163 64.0004 106.667 64.0004H576.003C623.054 64.0004 661.337 102.283 661.337 149.334C661.337 196.385 623.054 234.668 576.003 234.668H533.336C527.437 234.668 522.669 239.447 522.669 245.335V362.669C522.669 368.557 527.437 373.335 533.336 373.335C539.235 373.335 544.003 368.557 544.003 362.669V256.001H576.003C610.915 256.001 641.87 239.063 661.337 213.057V522.669Z" fill="#252525"/>
<path d="M213.334 106.667H117.334C111.435 106.667 106.667 111.446 106.667 117.334C106.667 123.222 111.435 128.001 117.334 128.001H213.334C219.233 128.001 224.001 123.222 224.001 117.334C224.001 111.446 219.233 106.667 213.334 106.667Z" fill="#252525"/>
<path d="M170.667 160.001H117.334C111.435 160.001 106.667 164.78 106.667 170.668C106.667 176.556 111.435 181.334 117.334 181.334H170.667C176.566 181.334 181.334 176.556 181.334 170.668C181.334 164.78 176.566 160.001 170.667 160.001Z" fill="#252525"/>
<path d="M576.003 117.334C576.003 111.446 571.235 106.667 565.336 106.667H469.336C463.437 106.667 458.669 111.446 458.669 117.334C458.669 123.222 463.437 128.001 469.336 128.001H565.336C571.235 128.001 576.003 123.222 576.003 117.334Z" fill="#252525"/>
<path d="M576.003 170.668C576.003 164.78 571.235 160.001 565.336 160.001H501.336C495.437 160.001 490.669 164.78 490.669 170.668C490.669 176.556 495.437 181.334 501.336 181.334H565.336C571.235 181.334 576.003 176.556 576.003 170.668Z" fill="#252525"/>
<path d="M213.334 181.334C219.225 181.334 224.001 176.559 224.001 170.668C224.001 164.777 219.225 160.001 213.334 160.001C207.443 160.001 202.667 164.777 202.667 170.668C202.667 176.559 207.443 181.334 213.334 181.334Z" fill="#252525"/>
<path d="M341.335 330.668C350.172 330.668 357.335 323.505 357.335 314.668C357.335 305.832 350.172 298.668 341.335 298.668C332.498 298.668 325.335 305.832 325.335 314.668C325.335 323.505 332.498 330.668 341.335 330.668Z" fill="#252525"/>
<path d="M341.335 394.669C350.172 394.669 357.335 387.505 357.335 378.669C357.335 369.832 350.172 362.668 341.335 362.668C332.498 362.668 325.335 369.832 325.335 378.669C325.335 387.505 332.498 394.669 341.335 394.669Z" fill="#252525"/>
</g>
<defs>
<clipPath id="clip0_166_95">
<rect width="682.67" height="682.67" fill="white"/>
</clipPath>
</defs>
</svg>
