<svg width="32" height="32" viewBox="0 0 32 32" fill="none" xmlns="http://www.w3.org/2000/svg">
<g id="compliance_18564589 1">
<g id="Group">
<path id="Vector" fill-rule="evenodd" clip-rule="evenodd" d="M24.2126 14.965H24.2128V9.60796C21.0475 8.45615 18.1968 6.93705 15.6436 5.07062C13.0903 6.93705 10.2396 8.45615 7.07438 9.60796V14.965C7.04788 19.6286 10.3633 23.8234 15.6436 26.7337C20.9097 23.8313 24.2134 19.6564 24.2134 15.0162L24.2129 14.9651L24.2126 14.965Z" fill="#00D660"/>
<path id="Vector_2" fill-rule="evenodd" clip-rule="evenodd" d="M13.1133 18.1602H18.1747V29.6595L15.644 26.6905L13.1133 29.6595V18.1602Z" fill="#FA6E85"/>
<path id="Vector_3" fill-rule="evenodd" clip-rule="evenodd" d="M16.5727 9.48487C16.9273 10.1224 17.7185 10.3795 18.3801 10.0721C19.1353 9.72141 19.9795 10.3347 19.8792 11.1613C19.7914 11.8855 20.2804 12.5585 20.9963 12.6988C21.8143 12.8591 22.1364 13.8507 21.5689 14.4611C21.0721 14.9953 21.0721 15.8273 21.5689 16.3615C22.1364 16.9719 21.8142 17.9635 20.9963 18.1238C20.2804 18.2641 19.7914 18.9371 19.8792 19.6613C19.9794 20.4879 19.1353 21.1013 18.3801 20.7505C17.7184 20.4431 16.9273 20.7002 16.5727 21.3377C16.1675 22.0661 15.1248 22.0661 14.7197 21.3377C14.365 20.7002 13.5739 20.4431 12.9122 20.7505C12.157 21.1012 11.3128 20.4879 11.413 19.6613C11.5008 18.9371 11.0119 18.2641 10.296 18.1238C9.47807 17.9635 9.15583 16.9719 9.72338 16.3615C10.2201 15.8271 10.2201 14.9953 9.72338 14.461C9.15583 13.8506 9.47807 12.859 10.296 12.6987C11.0119 12.5584 11.5009 11.8854 11.4131 11.1612C11.3129 10.3345 12.157 9.72128 12.9122 10.072C13.5739 10.3793 14.365 10.1223 14.7197 9.48474C15.1248 8.75642 16.1675 8.75648 16.5727 9.48487Z" fill="#FFBF31"/>
<path id="Vector_4" fill-rule="evenodd" clip-rule="evenodd" d="M13.3529 15.5983C13.1911 15.4268 13.1993 15.1567 13.3709 14.9951C13.5425 14.8335 13.8128 14.8413 13.9744 15.0133L15.006 16.1082L17.2601 13.6053C17.4179 13.43 17.6878 13.416 17.8631 13.5738C18.0383 13.7313 18.0524 14.0012 17.8946 14.1765L15.3302 17.0241C15.2503 17.1128 15.137 17.1638 15.0177 17.1655C15.0161 17.1655 15.0147 17.1655 15.0131 17.1655C14.8954 17.1655 14.783 17.1169 14.7022 17.031L13.3529 15.5983ZM6.65647 5.45191C6.6589 5.44064 6.66171 5.42964 6.66491 5.41837C6.66562 5.41632 6.66588 5.41428 6.66652 5.41223L7.26997 3.50644C7.34127 3.28148 7.58107 3.15687 7.80591 3.22804C8.03061 3.29927 8.15515 3.53927 8.08399 3.76391L7.89583 4.35828C10.1553 2.77376 12.8586 1.91296 15.6432 1.91296C18.8969 1.91296 22.0398 3.08704 24.493 5.21876C24.671 5.37351 24.6899 5.64333 24.5352 5.82106C24.3807 5.99911 24.1109 6.01792 23.933 5.86349C21.6351 3.86631 18.6911 2.76685 15.6432 2.76685C12.9856 2.76685 10.4069 3.60333 8.26658 5.14138L9.082 5.1602C9.31765 5.16532 9.50434 5.36084 9.49903 5.59674C9.49371 5.82887 9.30364 6.01376 9.07234 6.01376C9.06914 6.01376 9.06581 6.01376 9.06242 6.01338L7.0637 5.96788C7.05903 5.96788 7.05461 5.96685 7.04994 5.96653C7.04015 5.96621 7.03055 5.96551 7.02088 5.9641C7.01435 5.9634 7.00789 5.96237 7.00149 5.96135C6.99227 5.95962 6.983 5.95789 6.97378 5.95552C6.96764 5.95418 6.96149 5.95245 6.95548 5.95072C6.94613 5.94797 6.93679 5.94522 6.92764 5.94183C6.922 5.93978 6.91656 5.93773 6.91106 5.9353C6.90165 5.93152 6.89231 5.92704 6.88309 5.92263C6.87816 5.92026 6.87317 5.91783 6.86844 5.91514C6.85935 5.91002 6.85032 5.90452 6.84156 5.89869C6.83688 5.89594 6.83215 5.89287 6.8276 5.8898C6.81948 5.88397 6.81141 5.87744 6.80354 5.87098C6.79887 5.8672 6.79407 5.86343 6.78952 5.85933C6.78255 5.85319 6.77589 5.84634 6.76917 5.83949C6.76437 5.83469 6.75944 5.82989 6.75471 5.82477C6.75349 5.82343 6.75227 5.82234 6.75125 5.821C6.74415 5.81274 6.73775 5.80423 6.73135 5.79565C6.72975 5.7936 6.72789 5.79156 6.72616 5.78951C6.72603 5.78919 6.72578 5.7888 6.72559 5.78848C6.71611 5.77517 6.70767 5.76141 6.69992 5.74778C6.69909 5.74644 6.69858 5.74471 6.69775 5.7433C6.69109 5.73063 6.68495 5.71828 6.67957 5.70528C6.67823 5.70183 6.67701 5.69844 6.67567 5.69498C6.67138 5.68404 6.66754 5.67271 6.66415 5.66144C6.66293 5.65735 6.66171 5.65287 6.66063 5.64877C6.65781 5.63783 6.65544 5.62688 6.65352 5.61588C6.65276 5.6114 6.65179 5.60698 6.65128 5.6025C6.64955 5.59085 6.64847 5.5792 6.64776 5.56756C6.64751 5.56378 6.647 5.56 6.64687 5.55629C6.64629 5.54087 6.64648 5.52551 6.64764 5.51008C6.64764 5.50906 6.64789 5.50804 6.64802 5.50701C6.64911 5.49261 6.65096 5.4786 6.65365 5.46458C6.65448 5.46048 6.65557 5.456 6.65647 5.45191ZM29.7752 12.1084C29.6348 12.2977 29.3674 12.3378 29.1781 12.1974L28.6549 11.8098C28.9781 12.9773 29.1418 14.1836 29.1418 15.4118C29.1418 17.8044 28.5075 20.1553 27.3071 22.21C26.1426 24.2034 24.4754 25.8767 22.4858 27.049C22.4178 27.0891 22.3431 27.1083 22.2695 27.1083C22.1232 27.1083 21.9809 27.033 21.9013 26.8981C21.7816 26.695 21.8493 26.4331 22.0524 26.3136C25.8987 24.047 28.2881 19.8698 28.2881 15.4118C28.2881 14.2293 28.1265 13.0682 27.8072 11.9465L27.5335 12.6877C27.4697 12.86 27.3065 12.9668 27.1329 12.9668C27.0839 12.9668 27.0339 12.9582 26.985 12.9401C26.764 12.8586 26.6509 12.6131 26.7326 12.3919L27.4252 10.5163C27.4264 10.5132 27.428 10.5105 27.4293 10.5074C27.433 10.4978 27.437 10.4889 27.4414 10.4797C27.4438 10.4746 27.4462 10.4694 27.4489 10.4646C27.4538 10.455 27.4593 10.4461 27.4651 10.4369C27.4675 10.4332 27.4698 10.4291 27.4723 10.4253C27.4894 10.3999 27.5095 10.3763 27.5321 10.3548C27.5345 10.3523 27.5372 10.3503 27.5397 10.3482C27.5484 10.34 27.5576 10.3321 27.5673 10.3249C27.571 10.3222 27.5749 10.3194 27.579 10.3167C27.5875 10.3105 27.5962 10.3047 27.6053 10.2992C27.6101 10.2965 27.6151 10.2934 27.62 10.2906C27.6286 10.2861 27.6372 10.2817 27.6461 10.2776C27.6517 10.2749 27.6575 10.2721 27.6632 10.2698C27.6657 10.2691 27.668 10.2677 27.6705 10.2667C27.6776 10.2639 27.6846 10.2619 27.6917 10.2595C27.6956 10.2582 27.6995 10.2565 27.7037 10.255C27.705 10.255 27.7063 10.2547 27.7076 10.2543C27.722 10.2502 27.7367 10.2465 27.7514 10.244C27.7519 10.244 27.7522 10.2437 27.7527 10.2437C27.7685 10.241 27.7842 10.2392 27.8 10.2382H27.8085C27.821 10.2375 27.8337 10.2375 27.8463 10.2382C27.8507 10.2386 27.8551 10.2389 27.8597 10.2392C27.8705 10.2403 27.8814 10.2413 27.892 10.243C27.8972 10.2437 27.9021 10.2447 27.907 10.2458C27.9173 10.2478 27.9274 10.2502 27.9375 10.2526C27.9425 10.2543 27.9473 10.2554 27.9522 10.2571C27.9634 10.2605 27.9744 10.2646 27.9852 10.2687C27.9886 10.2701 27.9919 10.2712 27.9952 10.2725C28.0092 10.2787 28.0229 10.2855 28.0364 10.2931C28.0391 10.2948 28.0418 10.2968 28.0446 10.2982C28.0552 10.3047 28.0655 10.3116 28.0755 10.3187C28.077 10.3194 28.0785 10.3205 28.0798 10.3215L29.6862 11.5113C29.8758 11.6517 29.9155 11.919 29.7752 12.1084ZM9.40872 26.8508C9.40776 26.8531 9.40712 26.8552 9.40603 26.8576C9.39989 26.8713 9.39292 26.8847 9.38517 26.898C9.38492 26.8983 9.38447 26.8987 9.38421 26.8993C9.38396 26.8997 9.3837 26.9004 9.38332 26.9007C9.37435 26.9158 9.36444 26.9301 9.35388 26.9438C9.34997 26.9486 9.34568 26.9531 9.34172 26.9578C9.33423 26.9664 9.32687 26.9749 9.31868 26.9832C9.31292 26.989 9.3069 26.9938 9.30088 26.9992C9.29378 27.0058 9.28687 27.0119 9.27931 27.0177C9.27272 27.0229 9.26594 27.0273 9.25909 27.0321C9.25148 27.0373 9.24386 27.0424 9.23592 27.0472C9.22901 27.0513 9.22191 27.055 9.2148 27.0588C9.20623 27.0633 9.19765 27.0674 9.18882 27.0715C9.18191 27.0746 9.1748 27.0776 9.1677 27.0801C9.15835 27.0835 9.14882 27.0866 9.13909 27.0897C9.13212 27.0917 9.1252 27.0938 9.11797 27.0955C9.10805 27.0979 9.09807 27.0996 9.08802 27.1013C9.08066 27.1027 9.07355 27.1041 9.0662 27.1051C9.06447 27.1051 9.06287 27.1058 9.06114 27.1058L7.07247 27.3116C7.05762 27.3129 7.04277 27.3136 7.02805 27.3136C6.81205 27.3136 6.62664 27.1503 6.60392 26.9308C6.57973 26.6959 6.7501 26.4864 6.98472 26.4621L7.77691 26.3802C6.23765 25.2739 4.93788 23.8509 3.97916 22.2099C2.77903 20.1553 2.14453 17.8044 2.14453 15.4118C2.14453 13.7214 2.45365 12.0721 3.06312 10.5091C3.14869 10.2896 3.39631 10.1811 3.61589 10.2666C3.83548 10.3522 3.94408 10.5997 3.85852 10.8193C3.2877 12.283 2.99829 13.8282 2.99829 15.4118C2.99829 19.413 4.92347 23.1878 8.09896 25.5582L7.86786 24.9909C7.77896 24.7724 7.8838 24.5231 8.10223 24.4344C8.32053 24.3454 8.56968 24.4502 8.65858 24.6686L9.41276 26.5203C9.41359 26.5223 9.41397 26.5244 9.4148 26.5264C9.41896 26.5367 9.42242 26.5473 9.42562 26.5579C9.42683 26.562 9.42843 26.5665 9.42952 26.5706C9.43336 26.5853 9.43675 26.6003 9.43912 26.6154C9.43938 26.6168 9.43938 26.6185 9.4397 26.6199C9.44155 26.6336 9.44303 26.6473 9.44354 26.6613C9.44379 26.6654 9.44367 26.6699 9.4438 26.674C9.44392 26.6853 9.4438 26.6966 9.44309 26.7079C9.44284 26.7124 9.44232 26.7171 9.44188 26.7216C9.44079 26.7325 9.43932 26.7439 9.43746 26.7548C9.43669 26.7592 9.43586 26.7634 9.4349 26.7678C9.43259 26.7791 9.42965 26.7904 9.42632 26.8017C9.42523 26.8055 9.42415 26.8096 9.42299 26.8134C9.4189 26.8261 9.41423 26.8384 9.40872 26.8508ZM18.6008 24.2705C21.952 21.6063 23.7861 18.3453 23.7861 15.0166L23.7856 14.9704V9.90612C20.8359 8.8057 18.0992 7.3577 15.6432 5.59815C13.1872 7.3577 10.4506 8.8057 7.50095 9.90612L7.50031 15.0214C7.50031 18.3461 9.33461 21.6063 12.6857 24.2705V21.2609C12.3045 21.3208 11.9146 21.2294 11.5887 20.9928C11.1457 20.6706 10.9206 20.1542 10.9864 19.6106C11.0169 19.3592 10.9579 19.1353 10.8061 18.9261C10.6542 18.7173 10.4595 18.5919 10.211 18.5434C9.67375 18.4383 9.25192 18.0643 9.08277 17.5436C8.91343 17.0228 9.03503 16.4725 9.40789 16.0716C9.58031 15.886 9.66415 15.6703 9.66415 15.4118C9.66415 15.1537 9.58031 14.938 9.40789 14.7524C9.03496 14.3514 8.91343 13.8009 9.08264 13.2805C9.2518 12.7597 9.67362 12.3858 10.2109 12.2803C10.4595 12.2317 10.6542 12.1064 10.8061 11.8975C10.9579 11.6887 11.0169 11.4648 10.9864 11.2134C10.9205 10.6697 11.1456 10.153 11.5885 9.83117C12.0316 9.50932 12.5924 9.45492 13.089 9.68532C13.3187 9.79213 13.5498 9.80519 13.7955 9.72538C14.0412 9.64557 14.2204 9.4994 14.3436 9.27789C14.6097 8.79956 15.0956 8.51367 15.6431 8.51367C16.1906 8.51367 16.6766 8.79956 16.9425 9.27789C17.0657 9.4994 17.2449 9.64564 17.4908 9.72538C17.7365 9.80519 17.9676 9.79213 18.1972 9.68532C18.6938 9.45485 19.2549 9.50932 19.6977 9.83117C20.1407 10.153 20.3658 10.6697 20.2998 11.2134C20.2695 11.4648 20.3283 11.6883 20.4802 11.8975C20.632 12.1064 20.8268 12.2317 21.0753 12.2803C21.6126 12.3858 22.0344 12.7597 22.2036 13.2801C22.3728 13.8009 22.2512 14.3512 21.8784 14.7525C21.706 14.9381 21.6222 15.1537 21.6222 15.4119C21.6222 15.6704 21.706 15.8861 21.8784 16.0717C22.2512 16.4726 22.3728 17.0229 22.2036 17.5436C22.0344 18.0644 21.6126 18.438 21.0753 18.5434C20.8268 18.5921 20.6322 18.7174 20.4802 18.9262C20.3284 19.1354 20.2695 19.3594 20.2998 19.6106C20.3658 20.154 20.1406 20.6707 19.6978 20.9925C19.3717 21.2294 18.9818 21.3208 18.6005 21.2609V24.2705H18.6008ZM15.9681 26.4142C15.8871 26.3187 15.7683 26.2639 15.6432 26.2639C15.5182 26.2639 15.3996 26.3187 15.3184 26.4142L13.5394 28.5011V21.049C13.6235 21.0541 13.7086 21.0698 13.7957 21.0982C14.0414 21.1781 14.2207 21.3246 14.3438 21.5457C14.6099 22.0244 15.0958 22.31 15.6434 22.31C16.1908 22.31 16.6768 22.0244 16.9429 21.5457C17.0659 21.3246 17.2453 21.178 17.491 21.0982C17.578 21.0698 17.6631 21.0541 17.7471 21.049V28.5011L15.9681 26.4142ZM11.4968 18.4245C11.7775 18.8108 11.8909 19.2442 11.8339 19.7133C11.8051 19.9516 11.8961 20.1608 12.0905 20.3019C12.2848 20.443 12.5116 20.4652 12.7295 20.3638C12.9758 20.2495 13.2282 20.1923 13.4848 20.1923C13.6745 20.1923 13.8663 20.2238 14.0595 20.2865C14.5136 20.4341 14.8602 20.7179 15.0899 21.1308C15.2066 21.3407 15.4031 21.4565 15.6433 21.4565C15.8834 21.4565 16.0799 21.3407 16.1968 21.1308C16.4263 20.7179 16.7729 20.4341 17.227 20.2865C17.6812 20.1389 18.1286 20.1649 18.557 20.3638C18.7749 20.4652 19.0018 20.443 19.196 20.3019C19.3904 20.1608 19.4813 19.9516 19.4526 19.7133C19.3957 19.2442 19.5091 18.8108 19.7897 18.4245C20.0704 18.0383 20.4478 17.7962 20.9112 17.7055C21.147 17.6593 21.3175 17.5079 21.3918 17.2796C21.466 17.0512 21.4168 16.8286 21.2533 16.6526C20.9317 16.3068 20.7685 15.8894 20.7685 15.4118C20.7685 14.9345 20.9316 14.5168 21.2533 14.1709C21.4167 13.9949 21.466 13.7724 21.3918 13.544C21.3175 13.3157 21.147 13.1643 20.9112 13.1184C20.4476 13.0273 20.0703 12.7853 19.7896 12.399C19.5089 12.0128 19.3955 11.5794 19.4526 11.1103C19.4813 10.8719 19.3904 10.6628 19.196 10.5217C19.0017 10.3807 18.7749 10.3584 18.557 10.4598C18.1286 10.6587 17.6811 10.6851 17.2272 10.5375C16.7729 10.3899 16.4263 10.1057 16.1966 9.6928C16.0799 9.48295 15.8834 9.36756 15.6432 9.36756C15.4031 9.36756 15.2065 9.48295 15.0897 9.6928C14.8602 10.1057 14.5134 10.3899 14.0593 10.5375C13.6052 10.6851 13.1577 10.6587 12.7293 10.4598C12.5114 10.3588 12.2846 10.3807 12.0903 10.5217C11.896 10.6628 11.8049 10.872 11.8339 11.1103C11.8907 11.5793 11.7773 12.0128 11.4967 12.3994C11.216 12.7856 10.8387 13.0273 10.3751 13.1184C10.1395 13.1643 9.96879 13.3157 9.89455 13.544C9.82031 13.7724 9.86952 13.9953 10.033 14.1709C10.3547 14.5167 10.5178 14.9345 10.5178 15.4118C10.5178 15.8894 10.3547 16.3068 10.033 16.6526C9.86952 16.8286 9.82044 17.0511 9.89455 17.2796C9.96885 17.5083 10.1394 17.6593 10.3751 17.7055C10.8386 17.7962 11.2161 18.0383 11.4968 18.4245ZM22.9726 20.7079C24.0789 18.8908 24.6398 16.9762 24.6398 15.0115L24.6392 14.9656L24.6394 9.60826C24.6394 9.42887 24.5271 9.26861 24.3584 9.2073C21.2752 8.08532 18.4277 6.57773 15.8951 4.7264C15.745 4.61684 15.5412 4.61684 15.3913 4.7264C12.8586 6.57773 10.0112 8.08525 6.92802 9.2073C6.75938 9.26861 6.64699 9.42887 6.64699 9.60826L6.64712 14.9605L6.64642 15.0166C6.64642 16.9762 7.20738 18.8908 8.31388 20.7079C9.34024 22.3935 10.8112 23.9528 12.6855 25.3463V29.6601C12.6855 29.8389 12.7971 29.9987 12.9649 30.0607C13.1327 30.1223 13.3213 30.073 13.4373 29.9367L15.6431 27.3489L17.849 29.9367C17.9316 30.0339 18.0512 30.087 18.1738 30.087C18.2232 30.087 18.2732 30.0785 18.3214 30.0607C18.4892 29.9987 18.6006 29.8388 18.6006 29.6601V25.3463C20.4751 23.9528 21.9461 22.3932 22.9726 20.7079Z" fill="#1E2F3F"/>
</g>
</g>
</svg>
