<svg height="512pt" viewBox="0 0 512 512.00057" width="512pt" xmlns="http://www.w3.org/2000/svg"><path d="m432.070312 79.925781c-47.800781-47.800781-111.363281-74.128906-178.96875-74.128906-67.605468 0-131.164062 26.328125-178.96875 74.128906-47.804687 47.804688-74.132812 111.367188-74.132812 178.972657 0 67.605468 26.328125 131.164062 74.132812 178.96875 47.804688 47.804687 111.363282 74.132812 178.96875 74.132812 67.605469 0 131.167969-26.328125 178.972657-74.132812 47.804687-47.804688 74.132812-111.363282 74.132812-178.96875 0-67.605469-26.332031-131.164063-74.136719-178.972657zm0 0" fill="#ff432e"/><path d="m253.101562 5.796875v506.203125c67.605469 0 131.167969-26.328125 178.96875-74.132812 47.804688-47.804688 74.132813-111.363282 74.132813-178.96875 0-67.605469-26.328125-131.164063-74.132813-178.972657-47.800781-47.800781-111.363281-74.128906-178.96875-74.128906zm0 0" fill="#f03049"/><path d="m253.101562 93.039062c-91.453124 0-165.855468 74.40625-165.855468 165.859376 0 91.453124 74.402344 165.859374 165.855468 165.859374 91.457032 0 165.859376-74.40625 165.859376-165.859374 0-91.453126-74.40625-165.859376-165.859376-165.859376zm0 0" fill="#f0f0f0"/><path d="m253.101562 93.039062v331.71875c91.457032 0 165.859376-74.40625 165.859376-165.859374 0-91.453126-74.402344-165.859376-165.859376-165.859376zm0 0" fill="#dce1eb"/><path d="m253.101562 180.285156c-43.347656 0-78.613281 35.265625-78.613281 78.613282 0 43.347656 35.265625 78.613281 78.613281 78.613281 43.347657 0 78.613282-35.265625 78.613282-78.613281 0-43.347657-35.265625-78.613282-78.613282-78.613282zm0 0" fill="#ff432e"/><path d="m253.101562 180.285156v157.226563c43.347657 0 78.613282-35.265625 78.613282-78.613281 0-43.347657-35.265625-78.613282-78.613282-78.613282zm0 0" fill="#f03049"/><path d="m477.898438 34.105469c-5.902344-5.90625-15.476563-5.90625-21.378907 0l-214.105469 214.105469c-5.90625 5.902343-5.90625 15.472656 0 21.378906 2.949219 2.949218 6.820313 4.425781 10.6875 4.425781 3.867188 0 7.738282-1.472656 10.6875-4.425781l214.109376-214.105469c5.902343-5.90625 5.902343-15.476563 0-21.378906zm0 0" fill="#999"/><path d="m477.898438 34.105469c-5.902344-5.90625-15.476563-5.90625-21.378907 0l-214.105469 214.105469c-5.90625 5.902343-5.90625 15.472656 0 21.378906 2.949219 2.949218 6.820313 4.425781 10.6875 4.425781 3.867188 0 7.738282-1.472656 10.6875-4.425781l214.109376-214.105469c5.902343-5.90625 5.902343-15.476563 0-21.378906zm0 0" fill="#23272b"/><path d="m511.21875 91.5625c-1.824219-5.4375-6.5625-9.375-12.242188-10.171875l-59.972656-8.390625-8.398437-59.976562c-.792969-5.679688-4.734375-10.417969-10.167969-12.242188-5.4375-1.820312-11.4375-.40625-15.492188 3.648438l-65.917968 65.917968c-3.355469 3.355469-4.941406 8.085938-4.28125 12.785156l9.976562 71.273438c.933594 6.683594 6.191406 11.941406 12.875 12.875l71.269532 9.972656c.699218.097656 1.398437.148438 2.09375.148438 3.980468 0 7.835937-1.574219 10.691406-4.429688l65.917968-65.917968c4.054688-4.054688 5.46875-10.054688 3.648438-15.492188zm0 0" fill="#ffbc36"/></svg>