<?xml version="1.0" encoding="UTF-8" standalone="no"?>
<!-- Created with Inkscape (http://www.inkscape.org/) -->

<svg
   version="1.1"
   id="svg6867"
   xml:space="preserve"
   width="682.66669"
   height="682.66669"
   viewBox="0 0 682.66669 682.66669"
   xmlns="http://www.w3.org/2000/svg"
   xmlns:svg="http://www.w3.org/2000/svg"><defs
     id="defs6871"><clipPath
       clipPathUnits="userSpaceOnUse"
       id="clipPath6881"><path
         d="M 0,512 H 512 V 0 H 0 Z"
         id="path6879" /></clipPath></defs><g
     id="g6873"
     transform="matrix(1.3333333,0,0,-1.3333333,0,682.66667)"><g
       id="g6875"><g
         id="g6877"
         clip-path="url(#clipPath6881)"><g
           id="g6883"
           transform="translate(290.5713,424.4453)"><path
             d="m 0,0 h -164.841 c -10.071,0 -18.328,-8.248 -18.328,-18.312 v -118.967 c 0,-10.063 8.257,-18.283 18.328,-18.283 H 0 c 10.072,0 18.328,8.22 18.328,18.283 v 28.998 61.001 28.968 C 18.328,-8.248 10.072,0 0,0"
             style="fill:#ebddd9;fill-opacity:1;fill-rule:evenodd;stroke:none"
             id="path6885" /></g><g
           id="g6887"
           transform="translate(383.0635,406.8428)"><path
             d="M 0,0 -74.164,-29.678 V -90.679 L 0,-120.356 c 17.137,-6.861 21.534,-2.24 21.534,11.366 v 97.594 C 21.534,2.239 17.165,6.859 0,0"
             style="fill:#ebddd9;fill-opacity:1;fill-rule:evenodd;stroke:none"
             id="path6889" /></g><g
           id="g6891"
           transform="translate(308.8994,377.165)"><path
             d="m 0,0 74.164,29.678 c 17.165,6.859 21.534,2.239 21.534,-11.396 v -97.595 c 0,-13.605 -4.397,-18.226 -21.534,-11.366 L 0,-61.001 v -28.998 c 0,-10.063 -8.256,-18.283 -18.328,-18.283 h -164.841 c -10.071,0 -18.328,8.22 -18.328,18.283 V 28.969 c 0,10.063 8.257,18.311 18.328,18.311 H -18.328 C -8.256,47.28 0,39.032 0,28.969 Z m 122.85,124.835 h -351.47 c -30.698,0 -55.779,-25.058 -55.779,-55.729 v -254.97 h 452.19 10.81 v 254.97 c 0,30.671 -25.081,55.729 -55.751,55.729"
             style="fill:#ffcd69;fill-opacity:1;fill-rule:evenodd;stroke:none"
             id="path6893" /></g><g
           id="g6895"
           transform="translate(84.0811,100.6504)"><path
             d="M 0,0 C 0,14.201 11.519,25.682 25.705,25.682 39.891,25.682 51.381,14.201 51.381,0 51.381,-14.173 39.891,-25.653 25.705,-25.653 11.519,-25.653 0,-14.173 0,0 M 392.609,90.65 H -59.581 V -34.922 c 0,-30.642 25.081,-55.728 55.779,-55.728 h 351.47 c 30.67,0 55.751,25.086 55.751,55.728 V 90.65 Z"
             style="fill:#ffe6b4;fill-opacity:1;fill-rule:evenodd;stroke:none"
             id="path6897" /></g><g
           id="g6899"
           transform="translate(109.7861,126.332)"><path
             d="m 0,0 c -14.187,0 -25.705,-11.48 -25.705,-25.682 0,-14.172 11.518,-25.653 25.705,-25.653 14.186,0 25.676,11.481 25.676,25.653 C 25.676,-11.48 14.186,0 0,0"
             style="fill:#ff7b79;fill-opacity:1;fill-rule:evenodd;stroke:none"
             id="path6901" /></g><g
           id="g6903"
           transform="translate(277.6621,60.5127)"><path
             d="M 0,0 V 80.275"
             style="fill:none;stroke:#000000;stroke-width:20.148;stroke-linecap:round;stroke-linejoin:round;stroke-miterlimit:10;stroke-dasharray:none;stroke-opacity:1"
             id="path6905" /></g><g
           id="g6907"
           transform="translate(277.6621,140.7881)"><path
             d="M 0,0 H 36.911"
             style="fill:none;stroke:#000000;stroke-width:20.148;stroke-linecap:round;stroke-linejoin:round;stroke-miterlimit:10;stroke-dasharray:none;stroke-opacity:1"
             id="path6909" /></g><g
           id="g6911"
           transform="translate(277.6621,100.6504)"><path
             d="M 0,0 H 36.911"
             style="fill:none;stroke:#000000;stroke-width:20.148;stroke-linecap:round;stroke-linejoin:round;stroke-miterlimit:10;stroke-dasharray:none;stroke-opacity:1"
             id="path6913" /></g><g
           id="g6915"
           transform="translate(277.6621,60.5127)"><path
             d="M 0,0 H 36.911"
             style="fill:none;stroke:#000000;stroke-width:20.148;stroke-linecap:round;stroke-linejoin:round;stroke-miterlimit:10;stroke-dasharray:none;stroke-opacity:1"
             id="path6917" /></g><g
           id="g6919"
           transform="translate(183.1553,60.5127)"><path
             d="M 0,0 V 80.275"
             style="fill:none;stroke:#000000;stroke-width:20.148;stroke-linecap:round;stroke-linejoin:round;stroke-miterlimit:10;stroke-dasharray:none;stroke-opacity:1"
             id="path6921" /></g><g
           id="g6923"
           transform="translate(183.1553,140.7881)"><path
             d="m 0,0 h 29.677 c 11.037,0 20.088,-9.014 20.088,-20.069 0,-11.027 -9.051,-20.069 -20.088,-20.069 H 0 Z"
             style="fill:none;stroke:#000000;stroke-width:20.148;stroke-linecap:round;stroke-linejoin:round;stroke-miterlimit:10;stroke-dasharray:none;stroke-opacity:1"
             id="path6925" /></g><g
           id="g6927"
           transform="translate(212.832,100.6504)"><path
             d="M 0,0 20.088,-40.138"
             style="fill:none;stroke:#000000;stroke-width:20.148;stroke-linecap:round;stroke-linejoin:round;stroke-miterlimit:10;stroke-dasharray:none;stroke-opacity:1"
             id="path6929" /></g><g
           id="g6931"
           transform="translate(427.9189,72.2764)"><path
             d="m 0,0 c -15.689,-15.676 -41.139,-15.676 -56.828,0 -15.691,15.675 -15.691,41.102 0,56.776 15.689,15.676 41.139,15.676 56.828,0"
             style="fill:none;stroke:#000000;stroke-width:20.148;stroke-linecap:round;stroke-linejoin:round;stroke-miterlimit:10;stroke-dasharray:none;stroke-opacity:1"
             id="path6933" /></g><g
           id="g6935"
           transform="translate(109.7861,74.9971)"><path
             d="M 0,0 C 14.157,0 25.676,11.537 25.676,25.653 25.676,39.798 14.157,51.335 0,51.335 -14.158,51.335 -25.705,39.798 -25.705,25.653 -25.705,11.537 -14.158,0 0,0 Z"
             style="fill:none;stroke:#000000;stroke-width:20.148;stroke-linecap:round;stroke-linejoin:round;stroke-miterlimit:10;stroke-dasharray:none;stroke-opacity:1"
             id="path6937" /></g><g
           id="g6939"
           transform="translate(24.5,363.7568)"><path
             d="m 0,0 v 82.515 c 0,30.671 25.081,55.728 55.779,55.728 h 351.47 c 30.67,0 55.751,-25.057 55.751,-55.728 v -380.543 c 0,-30.643 -25.081,-55.729 -55.751,-55.729 H 55.779 C 25.109,-353.757 0,-328.671 0,-298.028 v 208.2"
             style="fill:none;stroke:#000000;stroke-width:20.148;stroke-linecap:round;stroke-linejoin:round;stroke-miterlimit:10;stroke-dasharray:none;stroke-opacity:1"
             id="path6941" /></g><g
           id="g6943"
           transform="translate(24.5,191.3008)"><path
             d="M 0,0 H 463"
             style="fill:none;stroke:#000000;stroke-width:20.148;stroke-linecap:round;stroke-linejoin:round;stroke-miterlimit:10;stroke-dasharray:none;stroke-opacity:1"
             id="path6945" /></g><g
           id="g6947"
           transform="translate(125.7305,424.4453)"><path
             d="m 0,0 h 164.841 c 10.072,0 18.328,-8.248 18.328,-18.312 v -118.967 c 0,-10.063 -8.256,-18.283 -18.328,-18.283 H 0 c -10.071,0 -18.328,8.22 -18.328,18.283 V -18.312 C -18.328,-8.248 -10.071,0 0,0 Z"
             style="fill:none;stroke:#000000;stroke-width:20.148;stroke-linecap:round;stroke-linejoin:round;stroke-miterlimit:10;stroke-dasharray:none;stroke-opacity:1"
             id="path6949" /></g><g
           id="g6951"
           transform="translate(308.8994,377.165)"><path
             d="m 0,0 74.164,29.678 c 17.165,6.859 21.534,2.239 21.534,-11.396 v -97.595 c 0,-13.605 -4.397,-18.226 -21.534,-11.366 L 0,-61.001"
             style="fill:none;stroke:#000000;stroke-width:20.148;stroke-linecap:round;stroke-linejoin:round;stroke-miterlimit:10;stroke-dasharray:none;stroke-opacity:1"
             id="path6953" /></g><g
           id="g6955"
           transform="translate(157.252,315.002)"><path
             d="M 0,0 H 101.798"
             style="fill:none;stroke:#000000;stroke-width:20.148;stroke-linecap:round;stroke-linejoin:round;stroke-miterlimit:10;stroke-dasharray:none;stroke-opacity:1"
             id="path6957" /></g><g
           id="g6959"
           transform="translate(159.2666,374.3301)"><path
             d="M 0,0 H -0.028"
             style="fill:none;stroke:#000000;stroke-width:20.148;stroke-linecap:round;stroke-linejoin:round;stroke-miterlimit:10;stroke-dasharray:none;stroke-opacity:1"
             id="path6961" /></g><g
           id="g6963"
           transform="translate(24.5,318.8008)"><path
             d="M 0,0 V 0.057"
             style="fill:none;stroke:#000000;stroke-width:20.148;stroke-linecap:round;stroke-linejoin:round;stroke-miterlimit:10;stroke-dasharray:none;stroke-opacity:1"
             id="path6965" /></g></g></g></g></svg>
